<?xml version="1.0" encoding="UTF-8" standalone="no"?>
<!DOCTYPE svg  PUBLIC '-//W3C//DTD SVG 1.1//EN'  'http://www.w3.org/Graphics/SVG/1.1/DTD/svg11.dtd'>
<svg xmlns="http://www.w3.org/2000/svg">
<defs>
<font id="EurostileLTStd-Regular" horiz-adv-x="570">
<font-face underline-position="-50" font-weight="400" descent="-200" panose-1="2 11 5 4 2 2 2 5 2 4" units-per-em="1000" unicode-range="U+0020-25CA" bbox="-67 -250 1260 968" x-height="525" underline-thickness="50" font-family="EurostileLTStd" ascent="800" cap-height="750"/>
<missing-glyph horiz-adv-x="1000"/>
<glyph glyph-name=".notdef" horiz-adv-x="1000"/>
<glyph glyph-name=".null" horiz-adv-x="0"/>
<glyph glyph-name="nonmarkingreturn" horiz-adv-x="333"/>
<glyph glyph-name="space" horiz-adv-x="345" unicode=" "/>
<glyph glyph-name="exclam" horiz-adv-x="270" unicode="!" d="M182 750l-8 -543h-73l-8 543h89zM182 102v-102h-89v102h89z"/>
<glyph glyph-name="quotedbl" horiz-adv-x="355" unicode='&quot;' d="M210 750h94v-111l-27 -135h-40l-27 135v111zM51 750h94v-111l-27 -135h-40l-27 135v111z"/>
<glyph glyph-name="numbersign" horiz-adv-x="690" unicode="#" d="M301 466l-27 -163h123l27 163h-123zM273 750h77l-36 -204h124l35 204h79l-35 -204h92v-80h-107l-27 -163h101v-80h-117l-38 -223h-76l37 223h-123l-40 -223h-75l37 223h-100v80h115l27 163h-105v80h119z"/>
<glyph glyph-name="dollar" horiz-adv-x="690" unicode="$" d="M378 680v-264q129 -2 173 -15q86 -25 105 -116q6 -29 6 -67q0 -71 -15.5 -114.5t-53.5 -66t-86 -30t-129 -7.5v-85h-65v85q-46 0 -74.5 1t-62 5.5t-53 13t-39.5 23.5t-30.5 37t-17 53.5t-6.5 73.5v26h85v-26q0 -34 1 -50.5t7.5 -35.5t18 -26t35 -14.5t55 -9t81.5 -1.5 v276q-37 0 -58 1t-52 3.5t-48.5 7.5t-39.5 14t-34 23.5t-23.5 34t-16.5 46.5t-5 62q0 41 6 73t16.5 54.5t30 38t39.5 24.5t51.5 14t61 6.5t72.5 1.5v70h65v-70q45 0 72 -1t59 -5t50 -11.5t36.5 -21t27.5 -33.5t15 -48.5t6 -66.5v-23h-85v23q0 80 -31.5 98.5t-149.5 18.5z M378 346v-276q37 0 58 0.5t45.5 3.5t37.5 8.5t26 15.5t19 25t9.5 35.5t3.5 48.5q0 49 -8.5 77t-35.5 41t-49.5 15.5t-77.5 4.5q-18 1 -28 1zM313 416v264q-36 0 -53 -0.5t-42.5 -2.5t-36.5 -7t-25.5 -14t-20 -23t-10 -34t-4.5 -48q0 -37 7.5 -62t19.5 -39.5t34.5 -22 t44 -9.5t55.5 -2h31z"/>
<glyph glyph-name="percent" horiz-adv-x="884" unicode="%" d="M287 513v110q0 55 -18 66.5t-88 11.5q-65 0 -82 -11.5t-17 -66.5v-110q0 -59 16.5 -71t82.5 -12q68 0 87 12t19 71zM347 621v-110q-1 -86 -36.5 -111t-128.5 -25t-125.5 24.5t-34.5 110.5v110q2 86 34.5 111t124.5 25q94 0 129.5 -25t36.5 -110zM731 750l-509 -756h-67 l506 756h70zM862 240v-110q-1 -86 -36.5 -111t-128.5 -25t-125.5 24.5t-34.5 110.5v110q2 86 34.5 111t124.5 25q94 0 129.5 -25t36.5 -110zM802 132v110q0 55 -18 66.5t-88 11.5q-65 0 -82 -11.5t-17 -66.5v-110q0 -59 16.5 -71t82.5 -12q68 0 87 12t19 71z"/>
<glyph glyph-name="ampersand" horiz-adv-x="788" unicode="&amp;" d="M740 0l-111 92q-9 -20 -23.5 -36t-29 -26.5t-38.5 -17.5t-41.5 -10.5t-48 -5t-48 -2t-51.5 -0.5h-4q-35 0 -53 0.5t-48 2.5t-45.5 6t-38 12t-34 19.5t-25.5 29t-21 40.5t-11.5 54t-4.5 69q0 30 1.5 54t7 42.5t9.5 31.5t15 23.5t16.5 16.5t21.5 12t23.5 8.5t28.5 7.5t30 8 q-40 33 -54 61t-14 87q0 105 55 141t175 36q111 0 161.5 -38.5t50.5 -150.5v-47h-85v47q-1 73 -23 93.5t-104 20.5q-30 0 -47 -1t-38.5 -6.5t-32.5 -16t-19 -30t-8 -48.5q0 -38 10.5 -58.5t41.5 -46.5l292 -245q0 9 1 25.5t2 24.5v7q0 8 -1 23t-1 22h78q0 -7 1 -19 t1.5 -21.5t0.5 -18.5q0 -56 -10 -105l136 -108zM563 144l-293 241q-58 -13 -81.5 -27.5t-31.5 -41.5t-8 -90q0 -39 2 -62.5t11 -43t20 -28t37 -15t53.5 -7.5t76.5 -1h37q34 0 58 2t52 9t45 23t22 41z"/>
<glyph glyph-name="quotesingle" horiz-adv-x="191" unicode="&apos;" d="M49 750h94v-111l-27 -135h-40l-27 135v111z"/>
<glyph glyph-name="parenleft" horiz-adv-x="312" unicode="(" d="M250 756v-75h-27q-29 0 -47.5 -15t-25.5 -44.5t-8.5 -48.5t-1.5 -52v-436q0 -32 1.5 -51.5t8.5 -49t25.5 -44.5t47.5 -15h27v-75h-27q-53 0 -88 18t-51.5 53.5t-22.5 73t-6 90.5v436q0 53 6 90.5t22.5 73t51.5 53.5t88 18h27z"/>
<glyph glyph-name="parenright" horiz-adv-x="312" unicode=")" d="M62 681v75h27q53 0 88 -18t51.5 -53.5t22.5 -73t6 -90.5v-436q0 -53 -6 -90.5t-22.5 -73t-51.5 -53.5t-88 -18h-27v75h27q29 0 47.5 15t25.5 44.5t8.5 49t1.5 51.5v436q0 33 -1.5 52t-8.5 48.5t-25.5 44.5t-47.5 15h-27z"/>
<glyph glyph-name="asterisk" horiz-adv-x="690" unicode="*" d="M545 589l-154 -56l92 -131l-44 -33l-93 135l-100 -135l-44 33l96 131l-153 58l19 54l154 -57v162h55v-162l153 57z"/>
<glyph glyph-name="plus" horiz-adv-x="584" unicode="+" d="M255 525h75v-204h204v-75h-204v-205h-75v205h-205v75h205v204z"/>
<glyph glyph-name="comma" horiz-adv-x="345" unicode="," d="M159 0h-38v102h89v-121q0 -46 -15.5 -69.5t-61.5 -23.5h-23v45q28 1 38.5 11t10.5 37v19z"/>
<glyph glyph-name="hyphen" horiz-adv-x="261" unicode="-" d="M0 311h261v-75h-261v75z"/>
<glyph glyph-name="period" horiz-adv-x="345" unicode="." d="M199 102v-102h-89v102h89z"/>
<glyph glyph-name="slash" horiz-adv-x="727" unicode="/" d="M699 750l-580 -863h-91l578 863h93z"/>
<glyph glyph-name="zero" horiz-adv-x="690" unicode="0" d="M346 -6q-96 0 -149.5 8.5t-95 37t-57.5 82t-18 143.5v220q2 73 14 120.5t32.5 78t61.5 46t87.5 21t122.5 5.5q96 0 149.5 -8.5t95 -37t57.5 -82t18 -143.5v-220q-2 -73 -14 -120.5t-32.5 -78t-61.5 -46t-87.5 -21t-122.5 -5.5zM344 681q-38 0 -56.5 -0.5t-46.5 -2t-40 -5 t-29.5 -10t-24.5 -16.5t-16 -24t-12 -34.5t-5.5 -45.5t-2.5 -58v-220q0 -33 2.5 -58t5.5 -45.5t12 -34.5t16 -24t24.5 -16.5t29.5 -10t40 -5t46.5 -2t56.5 -0.5h52t43.5 1.5t38 4t29.5 7.5t25 12t17.5 18t14 25t8.5 33t6 42t1 53v220q0 30 -1 53t-6 42t-8.5 33t-14 25 t-17.5 18t-25 12t-29.5 7.5t-38 4t-43.5 1.5h-52z"/>
<glyph glyph-name="one" horiz-adv-x="690" unicode="1" d="M448 750v-750h-85v685l-192 -211l-53 51l207 225h123z"/>
<glyph glyph-name="two" horiz-adv-x="690" unicode="2" d="M612 75v-75h-540v127q0 36 3.5 64.5t13 50.5t19 37.5t29 27t35.5 18.5t46.5 13t53 9t63.5 7q111 11 134 19q42 14 53 59q7 30 7 87q0 40 -2.5 66t-12 45t-19.5 28.5t-33.5 15t-45.5 6.5t-63 1q-130 0 -163 -20t-33 -106v-23v-39h-85v39q0 46 2.5 74t12.5 56.5t28 43.5 t49.5 28t77.5 17.5t111 4.5q151 0 206 -48t55 -189q0 -60 -9.5 -100t-26.5 -66t-51 -40.5t-71.5 -21.5t-100.5 -12q-123 -10 -160.5 -35t-37.5 -105v-64h455z"/>
<glyph glyph-name="three" horiz-adv-x="690" unicode="3" d="M275 347v75h89q84 2 106 10q39 16 45 81q1 15 1 33q0 40 -4 62t-13 38.5t-33.5 23t-55.5 9t-89 2.5q-109 0 -137 -21t-31 -108v-32h-85v32q0 48 7 82t23.5 56.5t35.5 35.5t53 19.5t64.5 8.5t80.5 2q33 0 47 -0.5l42 -1.5t40 -3.5t34 -7t32 -12t25 -18t21.5 -24.5 t14.5 -32.5t10.5 -42.5t2.5 -53q0 -84 -24 -126.5t-100 -48.5v-2q82 -6 110.5 -45.5t28.5 -126.5q0 -45 -6.5 -78.5t-16 -57t-29 -39t-37 -24t-48.5 -13t-55 -5.5t-65 -1h-35q-70 0 -114 6.5t-81.5 26t-54 58t-16.5 100.5v8v50h85v-50q0 -86 28.5 -104t152.5 -20h49 q104 0 131 25.5t27 126.5q0 37 -8 61t-18 37t-35 19.5t-43.5 7.5t-57.5 1h-5h-89z"/>
<glyph glyph-name="four" horiz-adv-x="690" unicode="4" d="M452 246v449h-2l-350 -449h352zM537 750v-504h109v-75h-109v-171h-85v171h-422v101l377 478h130z"/>
<glyph glyph-name="five" horiz-adv-x="690" unicode="5" d="M166 675v-224h2q37 62 202 62q68 0 116 -13.5t74 -33.5t40.5 -55.5t18 -68t3.5 -82.5q0 -61 -4.5 -101.5t-17.5 -71.5t-30.5 -48t-51.5 -28t-72.5 -14t-99.5 -3q-83 0 -128.5 6t-81 27.5t-49.5 61t-18 108.5l-1 18h86v-25q0 -35 8 -57.5t20 -35.5t39.5 -19t52 -7.5 t72.5 -1.5q46 0 75.5 2.5t52 11t34 20t19 35.5t9 50.5t1.5 71.5q0 63 -6.5 96t-29.5 53t-56 24.5t-99 4.5q-7 0 -23 0.5t-25 0.5q-25 0 -43.5 -2t-39 -9t-33 -21.5t-16.5 -36.5h-85v380h510v-75h-425z"/>
<glyph glyph-name="six" horiz-adv-x="690" unicode="6" d="M67 259v297q1 52 14 89t35 58.5t59.5 33.5t76.5 15.5t97 3.5h4q34 0 53 -0.5t50 -4t48.5 -9.5t39.5 -18.5t33.5 -30.5t20 -45.5t8.5 -63.5v-24h-85v21q0 19 -2.5 33t-9 24.5t-12.5 18t-20 12t-23.5 7t-30.5 4t-34 1.5h-40h-12q-47 0 -69.5 -1t-49 -7.5t-38 -19.5 t-19.5 -36.5t-9 -60.5v-161h2q28 69 191 69q68 0 109.5 -4.5t77.5 -17.5t54 -39.5t27.5 -68t9.5 -105.5q0 -77 -12.5 -122t-47.5 -71t-84 -34t-134 -8q-68 0 -110 5.5t-77.5 20.5t-53.5 45t-27.5 76.5t-9.5 117.5zM363 389q-46 0 -73.5 -1t-54 -5.5t-40 -13t-25 -23 t-15 -35.5t-3.5 -52q0 -45 1.5 -71t9 -50t19 -35.5t34.5 -20t52.5 -11t76.5 -2.5q36 0 61.5 1t47 5.5t34.5 8.5t23 14.5t15 20t8 29t3.5 36t0.5 45.5q0 58 -4 85.5t-24 47t-51.5 23.5t-95.5 4z"/>
<glyph glyph-name="seven" horiz-adv-x="690" unicode="7" d="M610 750v-107l-364 -643h-100l394 680h-477v70h547z"/>
<glyph glyph-name="eight" horiz-adv-x="690" unicode="8" d="M150 207q0 -34 1 -52.5t8.5 -36t18 -25t35 -14t53.5 -8t79 -2.5h24q107 0 139 27t32 111q0 50 -5.5 75.5t-28 42t-57.5 20.5t-104 4t-102 -3t-57 -18.5t-30 -42t-6 -78.5zM160 562q0 -48 4 -70.5t23.5 -40.5t55 -22.5t102.5 -4.5t101.5 4t55 21t25 40.5t4.5 72.5 q0 43 -4 63t-24.5 34.5t-55 18t-102.5 3.5q-46 0 -73.5 -1t-50.5 -6.5t-33.5 -12t-17.5 -21.5t-8.5 -31.5t-1.5 -46.5zM195 389v2q-74 13 -97 48.5t-23 122.5q0 40 6 69.5t15 50.5t28 34.5t36.5 21.5t50.5 12t60.5 5t73.5 1t72 -1t59.5 -4.5t51 -11.5t37.5 -22t29.5 -34.5 t15.5 -50.5t6 -70q0 -41 -3.5 -65.5t-15 -48.5t-36 -37.5t-64.5 -20.5v-1q75 -12 101.5 -51t26.5 -131q0 -73 -12 -114t-47.5 -64t-83.5 -29t-137 -6h-10q-33 0 -50 0.5t-44 1.5t-41 4t-34.5 8t-31 13t-24 19.5t-20 27.5t-13.5 36t-9.5 46t-2.5 57q0 91 23 130t107 52z"/>
<glyph glyph-name="nine" horiz-adv-x="690" unicode="9" d="M63 163v28h85v-28q0 -63 36 -78.5t165 -15.5q46 0 70 1t50 6.5t36.5 15t21 28.5t13 45t2.5 66v125l-2 2q-30 -67 -173 -67h-18q-85 0 -132.5 7t-83 31.5t-48.5 68.5t-13 120q0 63 8.5 104t26 68.5t52 41.5t77.5 19t113 5q85 0 134 -8t84 -34t47.5 -72t12.5 -124v-287 q0 -76 -9.5 -118t-40 -71t-83.5 -38.5t-145 -9.5q-54 0 -83.5 1t-68 6t-58.5 15.5t-40 29t-28 47.5t-8 70zM349 366q48 0 75 1t51.5 7t35 14.5t19 27.5t10.5 41.5t2 60.5q0 31 -1.5 53t-8 39.5t-12 29t-19.5 19.5t-25 12.5t-34 6.5t-41 2.5t-52 0.5q-50 0 -74.5 -1t-51 -6.5 t-36 -14.5t-18.5 -29t-10.5 -45t-1.5 -67q0 -37 2.5 -60.5t11.5 -42t20 -27t35.5 -14.5t50.5 -7t72 -1z"/>
<glyph glyph-name="colon" horiz-adv-x="345" unicode=":" d="M199 525v-102h-89v102h89zM199 102v-102h-89v102h89z"/>
<glyph glyph-name="semicolon" horiz-adv-x="345" unicode=";" d="M210 525v-102h-89v102h89zM159 0h-38v102h89v-121q0 -46 -15.5 -69.5t-61.5 -23.5h-23v45q28 1 38.5 11t10.5 37v19z"/>
<glyph glyph-name="less" horiz-adv-x="584" unicode="&lt;" d="M534 484v-80l-395 -162l395 -162v-80l-484 207v70z"/>
<glyph glyph-name="equal" horiz-adv-x="584" unicode="=" d="M50 244h484v-75h-484v75zM50 399h484v-75h-484v75z"/>
<glyph glyph-name="greater" horiz-adv-x="584" unicode="&gt;" d="M534 277v-70l-484 -207v80l391 162l-391 162v80z"/>
<glyph glyph-name="question" horiz-adv-x="584" unicode="?" d="M301 102v-102h-89v102h89zM299 214h-85v27q0 71 26.5 99t114.5 61q46 18 62 30.5t23.5 38.5t7.5 86q0 82 -27.5 103.5t-122.5 21.5q-54 0 -79 -2.5t-47 -15t-28.5 -37.5t-6.5 -70v-43h-80v43q1 55 11.5 91.5t27.5 58t49 32.5t65 14.5t88 3.5q128 0 179 -41t51 -159 q0 -69 -7 -104.5t-36 -66.5t-88 -51q-66 -23 -82 -37t-16 -56v-27z"/>
<glyph glyph-name="at" horiz-adv-x="990" unicode="@" d="M594 445q-3 31 -24.5 48t-52.5 17q-61 0 -102 -57t-44 -122q-1 -39 25 -73t65 -34t71 38t47 85t15 86v12zM644 550h71l-89 -280q-2 -10 -2 -13q0 -31 56 -31q44 0 77.5 37.5t48 87.5t14.5 99q0 70 -48 127t-117.5 85.5t-142.5 28.5h-2q-132 -1 -233.5 -104t-101.5 -236 v-7q5 -124 98 -204.5t220 -80.5q75 1 168 30l25 -58q-97 -36 -191 -37h-6q-102 0 -190 43t-143.5 125t-55.5 185v5q3 107 60.5 200t150.5 148.5t198 55.5q90 0 175.5 -33.5t145.5 -104t60 -161.5q0 -110 -64.5 -200.5t-168.5 -90.5q-89 0 -98 65q-21 -21 -35 -32.5 t-36.5 -21t-47.5 -9.5h-6q-62 0 -100 47.5t-38 111.5v7q5 90 66.5 161t149.5 75h6q34 0 65.5 -22.5t40.5 -54.5h2z"/>
<glyph glyph-name="A" horiz-adv-x="685" unicode="A" d="M508 229l-167 451l-165 -451h332zM532 159h-379l-58 -159h-89l273 750h120l280 -750h-88z"/>
<glyph glyph-name="B" horiz-adv-x="694" unicode="B" d="M146 675v-252h247q79 0 108 27.5t29 112.5q0 71 -27.5 91.5t-100.5 20.5h-256zM460 0h-399v750h380q101 0 137.5 -47t36.5 -151q0 -65 -19.5 -102.5t-74.5 -55.5v-2q69 -12 92.5 -57.5t23.5 -125.5q0 -104 -42 -156.5t-135 -52.5zM146 348v-273h269q77 0 107 22.5 t30 103.5q0 80 -23 113.5t-98 33.5h-6h-279z"/>
<glyph glyph-name="C" horiz-adv-x="665" unicode="C" d="M383 -6h-120q-103 0 -160.5 62t-57.5 174v290q0 62 16 106t41 69t68 39t85 18t103 4h70q115 0 160 -50.5t45 -165.5v-24h-85v21q0 82 -26 113t-106 31h-48q-139 0 -188.5 -29.5t-49.5 -128.5v-206q0 -50 1 -78.5t6 -61t14.5 -49.5t26 -32t41.5 -21t60 -6h101 q105 0 141.5 24t36.5 102v60h85v-70q0 -50 -13.5 -85.5t-34.5 -56t-56.5 -31.5t-70 -14.5t-85.5 -3.5z"/>
<glyph glyph-name="D" horiz-adv-x="734" unicode="D" d="M149 75h280q55 0 90 15t52 47t23 68t7 92v197q0 22 -5 47t-19.5 58t-49 54.5t-84.5 21.5h-294v-600zM64 0v750h365q36 0 62.5 -3t66 -19.5t65 -45t44.5 -85.5t19 -136v-179q0 -25 -2 -47.5t-9 -58t-23.5 -64t-41 -55.5t-66 -42t-95.5 -15h-385z"/>
<glyph glyph-name="E" horiz-adv-x="560" unicode="E" d="M126 675v-255h380v-70h-380v-275h397v-75h-482v750h482v-75h-397z"/>
<glyph glyph-name="F" horiz-adv-x="549" unicode="F" d="M150 675v-262h365v-70h-365v-343h-85v750h460v-75h-375z"/>
<glyph glyph-name="G" horiz-adv-x="696" unicode="G" d="M339 375h324v-163q0 -127 -57.5 -172.5t-191.5 -45.5h-82q-81 0 -130.5 9.5t-87.5 38t-54 82t-16 139.5v232q0 143 57.5 202t162.5 59h197q91 0 145.5 -40.5t54.5 -126.5v-58h-85v43q0 64 -32 85.5t-124 21.5h-105q-42 0 -70 -3t-50 -12t-34 -21.5t-19.5 -36t-10 -51.5 t-2.5 -72v-241q0 -105 40 -140t148 -35h80q114 0 147.5 24.5t33.5 113.5v93h-239v75z"/>
<glyph glyph-name="H" horiz-adv-x="750" unicode="H" d="M680 750v-750h-85v345h-439v-345h-85v750h85v-330h439v330h85z"/>
<glyph glyph-name="I" horiz-adv-x="228" unicode="I" d="M157 750v-750h-85v750h85z"/>
<glyph glyph-name="J" horiz-adv-x="565" unicode="J" d="M409 750h84v-569q0 -105 -58.5 -146t-169.5 -41q-43 0 -75 3.5t-64 13.5t-52 28.5t-32.5 49.5t-12.5 74v110h85v-85q0 -72 24.5 -95.5t111.5 -23.5q31 0 47 0.5t41 6t37.5 15t22.5 29.5t10 49z"/>
<glyph glyph-name="K" horiz-adv-x="678" unicode="K" d="M157 750v-328h74l306 328h111l-343 -363l384 -387h-115l-343 347h-74v-347h-85v750h85z"/>
<glyph glyph-name="L" horiz-adv-x="558" unicode="L" d="M160 750v-675h382v-75h-467v750h85z"/>
<glyph glyph-name="M" horiz-adv-x="965" unicode="M" d="M808 686l-283 -686h-84l-284 686h-2v-686h-85v750h147l265 -642l266 642h147v-750h-85v686h-2z"/>
<glyph glyph-name="N" horiz-adv-x="783" unicode="N" d="M715 750v-750h-139l-421 680h-2v-680h-85v750h140l420 -685h2v685h85z"/>
<glyph glyph-name="O" horiz-adv-x="671" unicode="O" d="M386 681h-101q-96 0 -127.5 -34.5t-31.5 -142.5v-267q0 -55 8.5 -88.5t30.5 -51t48 -23t72 -5.5h101q46 0 72 5.5t48 23t30.5 51t8.5 88.5v267q0 108 -31.5 142.5t-127.5 34.5zM285 756h101q140 -1 192 -55.5t52 -196.5v-267q0 -133 -54.5 -188t-189.5 -55h-101 q-135 0 -189.5 55t-54.5 188v267q0 142 52 196.5t192 55.5z"/>
<glyph glyph-name="P" horiz-adv-x="661" unicode="P" d="M404 675h-260v-308h220h5q30 0 44.5 0.5t36 3t31.5 8t23 16t18 26t9 38t4 53.5q0 55 -5 86t-21.5 49t-39.5 23t-65 5zM59 0v750h382q101 0 140 -59.5t39 -167.5q0 -21 -0.5 -34.5t-4 -40t-10 -45t-20 -41t-32.5 -36.5t-48.5 -24t-67.5 -10h-293v-292h-85z"/>
<glyph glyph-name="Q" horiz-adv-x="737" unicode="Q" d="M380 326l216 -142q6 16 6 59v279q0 78 -32.5 118.5t-126.5 40.5h-143q-94 0 -129.5 -37.5t-35.5 -133.5v-244q0 -122 33.5 -159.5t131.5 -37.5h143q99 0 132 47l-234 152zM734 92l-35 -58l-56 38q-64 -78 -217 -78h-117q-80 0 -130.5 15.5t-79 52.5t-39 88t-10.5 131v212 q0 139 59 198.5t200 64.5h117q144 0 202.5 -58.5t58.5 -204.5v-212q0 -100 -16 -147z"/>
<glyph glyph-name="R" horiz-adv-x="701" unicode="R" d="M154 375h262q94 3 120.5 36.5t26.5 131.5q0 40 -4 62t-19 39.5t-44.5 24t-79.5 6.5h-262v-300zM154 300v-300h-85v750h346q126 0 179.5 -46t53.5 -170q0 -45 -4 -74t-16.5 -57.5t-40 -45t-70.5 -21.5v-2q121 -9 121 -135v-199h-85v159q0 76 -26 108.5t-100 32.5h-273z "/>
<glyph glyph-name="S" horiz-adv-x="629" unicode="S" d="M311 346q-17 1 -48 3t-47 3.5t-41.5 4.5t-39.5 8.5t-32.5 14.5t-28.5 23t-20 32.5t-14 44.5t-4 58q0 50 7 85.5t24 59.5t37.5 39t55 22t68 9.5t85.5 2.5q40 0 64.5 -1t56.5 -5t51 -11.5t40 -21t32 -33.5t18.5 -49.5t7.5 -68.5v-21h-85q-1 35 -3.5 56t-12 37.5t-19.5 24 t-35 12t-48.5 5.5t-69.5 1q-65 0 -100 -4.5t-56 -19.5t-27 -37t-6 -64q0 -48 8.5 -75.5t37 -40t50 -15t78.5 -3.5q22 -1 34 -1q128 -7 164 -17q69 -19 90 -83q14 -41 14 -108q0 -45 -6.5 -79t-17 -57.5t-31.5 -39t-40 -24t-54.5 -13t-63.5 -5.5t-76 -1q-59 0 -97.5 3.5 t-75.5 15t-57.5 32.5t-33 57.5t-12.5 88.5q0 13 2 43h85v-14q0 -23 1 -41t4.5 -33t6 -25.5t11 -19l13.5 -13.5t20 -9t24 -6t30.5 -3t35 -1h43.5q38 0 55 0.5t43.5 2t37 5t26 11t20.5 17.5t12 26t8.5 36.5t1.5 48.5q0 27 -3.5 46.5t-8.5 32.5t-16 22t-20.5 13.5t-29 7 t-34 3.5t-42 2t-47.5 3z"/>
<glyph glyph-name="T" horiz-adv-x="579" unicode="T" d="M332 675v-675h-85v675h-243v75h571v-75h-243z"/>
<glyph glyph-name="U" horiz-adv-x="737" unicode="U" d="M581 750h85v-540q0 -59 -15 -99.5t-37.5 -63.5t-64.5 -35t-80.5 -15t-99.5 -3q-44 0 -69 1t-61 5t-56.5 12t-44.5 24t-36.5 38.5t-21 57t-8.5 78.5v540h85v-540q0 -39 5 -62t16.5 -40t37.5 -24.5t60.5 -11t92.5 -3.5q36 0 53 0.5t43 2t38 5t28.5 10.5t23 17t14 25t10 35 t2.5 46v540z"/>
<glyph glyph-name="V" horiz-adv-x="643" unicode="V" d="M558 750h91l-266 -750h-121l-268 750h91l236 -685h3z"/>
<glyph glyph-name="W" horiz-adv-x="1123" unicode="W" d="M1121 750l-236 -750h-129l-196 675h-2l-199 -675h-127l-230 750h87l204 -685h2l202 685h125l200 -685h2l209 685h88z"/>
<glyph glyph-name="X" horiz-adv-x="653" unicode="X" d="M641 750l-240 -362l258 -388h-100l-228 345l-233 -345h-104l268 388l-246 362h102l213 -321l210 321h100z"/>
<glyph glyph-name="Y" horiz-adv-x="632" unicode="Y" d="M638 750l-284 -437v-313h-85v313l-275 437h99l222 -351l222 351h101z"/>
<glyph glyph-name="Z" horiz-adv-x="637" unicode="Z" d="M601 750v-79l-472 -596h482v-75h-585v74l471 601h-457v75h561z"/>
<glyph glyph-name="bracketleft" horiz-adv-x="311" unicode="[" d="M55 756h194v-75h-109v-756h109v-75h-194v906z"/>
<glyph glyph-name="backslash" horiz-adv-x="278" unicode="\" d="M237 -113l-287 863h93l285 -863h-91z"/>
<glyph glyph-name="bracketright" horiz-adv-x="311" unicode="]" d="M256 -150h-194v75h109v756h-109v75h194v-906z"/>
<glyph glyph-name="asciicircum" horiz-adv-x="584" unicode="^" d="M257 750h70l207 -489h-80l-162 391l-162 -391h-80z"/>
<glyph glyph-name="underscore" horiz-adv-x="500" unicode="_" d="M500 -75v-50h-500v50h500z"/>
<glyph glyph-name="grave" horiz-adv-x="338" unicode="`" d="M115 743l148 -113l-26 -41l-162 100z"/>
<glyph glyph-name="a" d="M503 0h-79v54l-2 2q-20 -40 -63 -51t-110 -11q-100 0 -150 32t-50 127q0 53 13 86.5t41.5 50.5t62.5 22.5t88 5.5q153 0 165 -53h5v97q0 67 -32 86t-108 19q-21 0 -32.5 -0.5t-30.5 -2t-29.5 -6.5t-22.5 -12.5t-17 -20.5t-5 -30v-18h-82v11q0 38 10.5 65t26.5 42t43 23 t52.5 10.5t63.5 2.5h14h12q42 0 71.5 -3t59 -13.5t47 -28.5t28 -50.5t10.5 -77.5v-358zM263 58q30 0 47.5 1t42 6t37.5 15t22.5 29t9.5 47q0 29 -7.5 47.5t-17.5 29t-33.5 15t-41 5.5t-53.5 1h-6q-77 0 -104.5 -15.5t-27.5 -75.5q0 -70 27.5 -87.5t104.5 -17.5z" unicode="a"/>
<glyph glyph-name="b" horiz-adv-x="574" unicode="b" d="M68 0v750h79v-293h2q28 74 169 74q66 0 108 -18t62.5 -56.5t27.5 -82t7 -112.5q0 -71 -6.5 -115t-27.5 -82t-62.5 -54.5t-108.5 -16.5q-133 0 -169 70l-2 -2v-62h-79zM441 262q0 130 -25.5 167.5t-119.5 37.5q-42 0 -68.5 -7.5t-42.5 -20.5t-24 -41t-10 -56.5t-2 -79.5 q0 -126 29.5 -165t117.5 -39q42 0 69 8.5t42.5 21t23 41.5t9 55.5t1.5 77.5z"/>
<glyph glyph-name="c" horiz-adv-x="546" unicode="c" d="M426 190h79v-29q0 -43 -11.5 -74t-30.5 -49t-49 -28t-60 -13t-72 -3q-54 0 -92.5 6.5t-64.5 23t-41 36t-23 55t-10 69.5t-2 89q0 70 8 113.5t30.5 78.5t67 50.5t114.5 15.5q55 0 90 -5t69.5 -20.5t51 -49.5t16.5 -88v-14h-79v16q0 28 -7 46.5t-16.5 28.5t-30.5 15 t-38.5 6t-50.5 1q-31 0 -52.5 -4t-37 -9t-25.5 -19.5t-16 -27t-8.5 -40.5t-3 -50.5t-0.5 -65.5t1 -66t6 -49t15 -37.5t28 -22.5t44.5 -14.5t65.5 -3.5q79 0 107 19t28 87v26z"/>
<glyph glyph-name="d" horiz-adv-x="574" unicode="d" d="M426 0v66l-2 2q-36 -74 -169 -74q-68 0 -110.5 18t-63 57.5t-26.5 81.5t-6 111q0 54 3.5 89.5t15 72.5t33.5 58.5t60.5 35t93.5 13.5q143 0 169 -71h2v290h79v-750h-79zM280 58q91 0 118.5 40t27.5 164q0 116 -27 160.5t-119 44.5q-65 0 -94 -13.5t-42 -55.5t-13 -136 q0 -69 6.5 -109t26 -61.5t45 -27.5t71.5 -6z"/>
<glyph glyph-name="e" horiz-adv-x="565" unicode="e" d="M134 309h296q-2 59 -6.5 88t-22 46.5t-40.5 20.5t-73 3q-54 0 -83.5 -6.5t-45 -28.5t-19 -45.5t-6.5 -77.5zM431 159h81v-19q0 -40 -13 -68.5t-31.5 -43.5t-51 -23t-59.5 -9.5t-69 -1.5q-77 0 -123 13t-71.5 47t-33.5 80.5t-8 127.5q0 163 47 216t189 53q67 0 107 -9 t68 -35t38.5 -70.5t10.5 -118.5v-53h-378q0 -46 1.5 -72t7.5 -50t14.5 -34.5t27.5 -18.5t42 -10t61 -2q86 0 114.5 14t28.5 67v20z"/>
<glyph glyph-name="f" horiz-adv-x="302" unicode="f" d="M167 525h139v-64h-139v-461h-79v461h-80v64h80v63q0 96 36 132t133 36q17 0 49 -2v-64q-32 2 -49 2q-57 0 -73.5 -20t-16.5 -76v-71z"/>
<glyph glyph-name="g" horiz-adv-x="573" unicode="g" d="M508 525v-587q0 -97 -61.5 -134t-169.5 -37q-50 0 -83.5 5t-64.5 20.5t-46.5 47.5t-15.5 81v17h79q0 -70 29.5 -88.5t101.5 -18.5q81 0 116 21t36 92v121h-2q-24 -71 -169 -71q-122 0 -164.5 62t-42.5 206q0 72 7 117t28.5 82t63.5 53.5t108 16.5q64 0 106 -15t63 -58 l2 1v66h79zM277 58q32 0 56.5 6t40.5 13.5t26.5 24.5t16.5 30t8.5 39t3 42t0.5 49q0 50 -2 78t-10.5 56t-25 41.5t-44 21.5t-70.5 8q-30 0 -52.5 -4.5t-38 -10.5t-25.5 -20.5t-16 -26.5t-8.5 -37t-3 -42.5t-0.5 -52.5v-11v-38q0 -46 3.5 -70.5t17 -49.5t43.5 -35.5t80 -10.5 z"/>
<glyph glyph-name="h" horiz-adv-x="580" unicode="h" d="M148 750v-289h2q28 70 162 70q105 0 151.5 -37.5t46.5 -138.5v-6v-349h-79v355q0 69 -27.5 90.5t-98.5 21.5q-95 0 -126 -34t-31 -127v-306h-79v750h79z"/>
<glyph glyph-name="i" horiz-adv-x="215" unicode="i" d="M147 750v-87h-79v87h79zM147 525v-525h-79v525h79z"/>
<glyph glyph-name="j" horiz-adv-x="209" unicode="j" d="M147 750v-87h-79v87h79zM147 525v-588q-1 -35 -5 -57.5t-15.5 -45t-34.5 -33t-58 -10.5q-17 0 -39 5v61q3 0 8 -0.5t8 -0.5q36 0 46.5 20.5t10.5 59.5v27v562h79z"/>
<glyph glyph-name="k" horiz-adv-x="487" unicode="k" d="M147 750v-434h32l189 209h97l-225 -241l266 -284h-104l-223 252h-32v-252h-79v750h79z"/>
<glyph glyph-name="l" horiz-adv-x="214" unicode="l" d="M147 750v-750h-79v750h79z"/>
<glyph glyph-name="m" horiz-adv-x="919" unicode="m" d="M145 525v-81h2q36 87 175 87q57 0 103.5 -20t58.5 -67q44 87 187 87q100 0 141 -43t41 -142v-346h-79v338q0 72 -21.5 100.5t-93.5 28.5q-87 0 -123.5 -31t-36.5 -114v-322h-79v352q-1 34 -3.5 48.5t-13 33.5t-35 26t-65.5 7q-80 0 -119 -36t-39 -115v-316h-79v525h79z "/>
<glyph glyph-name="n" horiz-adv-x="580" unicode="n" d="M148 525v-64h2q28 70 162 70q105 0 151.5 -37.5t46.5 -138.5v-6v-349h-79v355q0 69 -27.5 90.5t-98.5 21.5q-95 0 -126 -34t-31 -127v-306h-79v525h79z"/>
<glyph glyph-name="o" d="M134 262q0 -51 1 -79t7 -54.5t14.5 -37.5t27 -20t41 -11t60.5 -2t60.5 2t41 11t27 20t14.5 37.5t7 54.5t1 79t-1 79.5t-7 54.5t-14.5 37.5t-27 20.5t-41 11t-60.5 2t-60.5 -2t-41 -11t-27 -20.5t-14.5 -37.5t-7 -54.5t-1 -79.5zM52 262q0 87 8.5 136t35.5 81t70 42 t119 10t119 -10t70 -42t35.5 -81t8.5 -136t-8.5 -136t-35.5 -80.5t-70 -41.5t-119 -10t-119 10t-70 41.5t-35.5 80.5t-8.5 136z" unicode="o"/>
<glyph glyph-name="p" horiz-adv-x="573" unicode="p" d="M145 525v-64l2 -2q38 72 169 72q56 0 94.5 -14t60 -34.5t33 -58.5t14.5 -72.5t3 -89.5q0 -155 -44 -211.5t-161 -56.5q-136 0 -169 68h-2v-289h-79v752h79zM294 467q-32 0 -55.5 -5t-39.5 -11t-26.5 -22t-16 -27.5t-8 -39t-3 -45t-0.5 -55.5q0 -44 2 -70t10 -55t23.5 -44 t44 -25t69.5 -10q91 0 118 38t27 166q0 66 -3.5 99.5t-18.5 60.5t-43.5 36t-79.5 9z"/>
<glyph glyph-name="q" horiz-adv-x="575" unicode="q" d="M508 525v-752h-79v287h-2q-29 -66 -154 -66q-64 0 -102.5 10t-67 39t-40 81.5t-11.5 137.5q0 48 2.5 80.5t10.5 65.5t23 53.5t39 37.5t60.5 24.5t85.5 7.5q117 0 154 -71l2 2v63h79zM284 58q49 0 78.5 11.5t43.5 41t17.5 61t3.5 90.5q0 37 -0.5 58t-3.5 46.5t-9.5 38.5 t-17.5 27t-28 20.5t-40.5 10.5t-55.5 4q-57 0 -84 -13.5t-40.5 -57t-13.5 -134.5q0 -38 0.5 -58t3.5 -46t9 -38.5t16.5 -27t26.5 -20.5t39 -10t55 -4z"/>
<glyph glyph-name="r" horiz-adv-x="442" unicode="r" d="M58 525h77l-4 -65l2 -2q34 73 149 73q146 0 146 -148v-38h-75v35q0 49 -19.5 68t-68.5 19q-69 0 -98.5 -32t-29.5 -100v-8v-327h-79v525z"/>
<glyph glyph-name="s" horiz-adv-x="537" unicode="s" d="M484 408v-20h-82v20q0 16 -5.5 26t-13 15.5t-26.5 8t-33 3t-45 0.5h-9q-34 0 -50.5 -0.5t-37 -4t-29.5 -10t-15 -18.5t-6 -31q0 -61 16.5 -74.5t73.5 -15.5q12 -1 18 -1q17 -1 49 -2t48.5 -2t42.5 -4.5t40 -9.5t31.5 -17t26 -27t14.5 -40.5t6 -55.5q0 -43 -12.5 -73 t-30 -45.5t-50 -24t-58 -10t-68.5 -1.5q-42 0 -69 1.5t-61.5 8.5t-54.5 19.5t-34 36t-14 57.5v49h82v-41q0 -37 30 -49t121 -12q5 0 17 -0.5t19 -0.5q46 0 73.5 16t27.5 66q0 24 -4.5 40t-9 24.5t-20 13t-24.5 5.5t-36 1.5t-43 1.5q-12 1 -37.5 2t-38 2t-34 4t-33 7t-28 11 t-25 17t-17.5 24.5t-12.5 34t-3.5 43.5q0 28 3.5 50t12.5 38t18.5 27.5t27.5 19t32 11.5t40 6t44 2.5t51 0.5q35 0 57.5 -1t53.5 -8t49 -19t31.5 -36.5t13.5 -58.5z"/>
<glyph glyph-name="t" horiz-adv-x="366" unicode="t" d="M346 525v-64h-203v-333q1 -42 15.5 -56t58.5 -14q27 0 43 6t22 20.5t7.5 26.5t1.5 36v39h75v-39q0 -79 -35.5 -116t-115.5 -37q-91 0 -121 32.5t-30 125.5v309h-70v64h70v127h79v-127h203z"/>
<glyph glyph-name="u" d="M420 0v70h-2q-33 -76 -164 -76q-103 0 -145.5 44.5t-42.5 149.5v337h79v-337q0 -73 18.5 -101.5t89.5 -28.5q91 0 129.5 27.5t38.5 115.5v324h79v-525h-80z" unicode="u"/>
<glyph glyph-name="v" horiz-adv-x="453" unicode="v" d="M457 525l-176 -525h-111l-174 525h80l149 -465h2l144 465h86z"/>
<glyph glyph-name="w" horiz-adv-x="754" unicode="w" d="M751 525l-147 -525h-115l-112 470h-2l-113 -470h-116l-142 525h81l119 -470h2l115 470h113l114 -470h2l119 470h82z"/>
<glyph glyph-name="x" horiz-adv-x="454" unicode="x" d="M438 525l-167 -251l187 -274h-95l-136 212l-136 -212h-95l190 274l-170 251h89l122 -192l119 192h92z"/>
<glyph glyph-name="y" horiz-adv-x="437" unicode="y" d="M441 525l-151 -562q-28 -97 -49 -131q-42 -65 -128 -65q-9 0 -36 5v61q14 -3 28 -3q23 0 40.5 11t28.5 33t17 39.5t13 47t10 39.5h-28l-190 525h81l162 -467h2l118 467h82z"/>
<glyph glyph-name="z" horiz-adv-x="454" unicode="z" d="M430 525v-73l-313 -388h313v-64h-405v73l313 388h-287v64h379z"/>
<glyph glyph-name="braceleft" horiz-adv-x="334" unicode="{" d="M48 266v75q48 6 63 36.5t15 95.5v164q0 48 29 83.5t53 35.5h83v-75h-44q-21 0 -28.5 -15t-7.5 -46v-163q0 -47 -18 -85t-30.5 -49.5t-23.5 -19.5q72 -56 72 -154v-162q0 -32 7.5 -47t28.5 -15h44v-75h-83q-24 0 -53 35t-29 84v164q0 64 -15 95.5t-63 37.5z"/>
<glyph glyph-name="bar" horiz-adv-x="260" unicode="|" d="M168 750v-1000h-75v1000h75z"/>
<glyph glyph-name="braceright" horiz-adv-x="334" unicode="}" d="M286 340v-75q-48 -6 -63 -36.5t-15 -95.5v-164q0 -48 -29 -83.5t-53 -35.5h-83v75h44q21 0 28.5 15t7.5 46v163q0 47 18 85t30.5 49.5t23.5 19.5q-72 56 -72 154v162q0 32 -7.5 47t-28.5 15h-44v75h83q24 0 53 -35t29 -84v-164q0 -64 15 -95.5t63 -37.5z"/>
<glyph glyph-name="asciitilde" horiz-adv-x="584" unicode="~" d="M120 215h-70q2 41 11 73.5t34.5 59.5t64.5 31h8q34 0 59 -14l146 -88q24 -13 43 -13h4q23 0 34 20t11 49q0 11 -1 16h70q0 -2 0.5 -6.5t0.5 -6.5q0 -54 -33 -101t-84 -47h-4q-40 0 -86 28l-120 76q-19 16 -40 16q-19 0 -33.5 -25t-14.5 -58v-10z"/>
<glyph glyph-name="uni00A0" horiz-adv-x="345" unicode=" "/>
<glyph glyph-name="exclamdown" horiz-adv-x="270" unicode="¡" d="M88 -225l8 543h73l8 -543h-89zM177 525v-102h-89v102h89z"/>
<glyph glyph-name="cent" horiz-adv-x="690" unicode="¢" d="M300 687h65v-73q87 -2 135 -38.5t48 -128.5v-10h-80q0 4 0.5 10t0.5 9q0 52 -23 71.5t-81 21.5v-407q62 0 87.5 20t26.5 82v29h80v-29q-2 -92 -45.5 -129.5t-135.5 -37.5h-13v-83h-65v83h-8q-51 0 -87 15t-56.5 37.5t-32 60.5t-14.5 73t-3 85q0 52 3 86.5t15 70.5 t33 57.5t58.5 36t91.5 15.5v73zM300 142v407q-25 -1 -43 -6.5t-30.5 -11.5t-20.5 -22t-12.5 -27t-6.5 -37.5t-2.5 -43t-0.5 -53.5q0 -120 20 -161t96 -45z"/>
<glyph glyph-name="sterling" horiz-adv-x="690" unicode="£" d="M442 363v-70h-213v-62v-34q0 -48 -11.5 -77.5t-50.5 -53.5l2 -2l484 9v-73h-582v64q25 4 40.5 18t22 37.5t8.5 42.5t2 47v22v62h-92v70h92v168q0 73 14 118t46.5 68.5t73 31t107.5 7.5q152 0 203 -41.5t51 -172.5v-16h-80v16q0 90 -28 114.5t-128 24.5q-44 0 -69 -1 t-46.5 -7.5t-30.5 -14t-16.5 -27.5t-9 -40.5t-2.5 -59.5v-168h213z"/>
<glyph glyph-name="currency" horiz-adv-x="690" unicode="¤" d="M339 217q44 0 82 32t38 91q0 54 -38 84t-82 30q-43 0 -79.5 -29t-36.5 -83v-5v-5q0 -54 37 -84.5t79 -30.5zM134 497l54 57l58 -59q49 22 93 24h7q47 0 95 -24l56 54l59 -61l-58 -55q19 -29 26 -85v-7q0 -47 -30 -99l57 -57l-58 -55l-53 55q-49 -31 -100 -33h-5 q-34 0 -88 25l-54 -51l-55 59l49 51q-29 36 -29 98v6q0 68 34 97z"/>
<glyph glyph-name="yen" horiz-adv-x="690" unicode="¥" d="M505 512h102v-70h-145l-68 -112h213v-70h-223v-260h-85v260h-216v70h206l-67 112h-139v70h98l-143 238h99l210 -351l207 351h98z"/>
<glyph glyph-name="brokenbar" horiz-adv-x="260" unicode="¦" d="M168 675v-350h-75v350h75zM168 -175h-75v350h75v-350z"/>
<glyph glyph-name="section" horiz-adv-x="690" unicode="§" d="M416 85l-208 55q-76 21 -100 50.5t-24 109.5q0 58 17.5 92.5t68.5 43.5v2q-55 28 -55 130q0 45 5 76.5t19.5 52.5t30 32.5t46.5 17.5t58 7.5t76 1.5q53 0 87 -2.5t63 -11t44 -21t26 -36t14.5 -53.5t4.5 -75h-75q0 31 -1.5 49.5t-8 34.5t-16 23.5t-30 13t-44.5 7t-64 1.5 h-32q-75 0 -101.5 -17t-26.5 -83q0 -24 0.5 -38t7 -26.5t10.5 -18t21.5 -13t28.5 -11t43 -12.5l146 -41q7 -2 27 -7.5t26 -7.5t22 -7.5t21.5 -9t17 -10.5t16 -13.5t11.5 -16.5t9.5 -21.5t4.5 -26t2 -31.5q0 -126 -73 -147v-2q32 -11 49.5 -36t21.5 -49.5t4 -62.5 q0 -32 -4 -57.5t-9.5 -45t-17.5 -34t-22.5 -24.5t-30 -16.5t-34.5 -10.5t-41.5 -5.5t-45 -2t-51.5 -0.5q-53 0 -84.5 2t-65.5 8.5t-51.5 20t-33 36.5t-21.5 58t-6 84h75q0 -27 0.5 -38t3 -29.5t7 -25t14 -17.5t22.5 -14t33 -8t45.5 -6t61.5 -1h38q39 0 60.5 3t43 14.5 t30.5 37t9 67.5q0 57 -20.5 75t-80.5 33q-9 2 -14 3zM253 207l146 -41q39 -11 62 -11q37 0 52.5 26.5t15.5 86.5q0 10 -1.5 18.5t-6 15.5t-7 12t-11 10.5t-12 8t-15 6.5t-14.5 5t-16.5 4.5t-15.5 4.5l-139 41q-42 14 -68 14q-34 0 -49 -24.5t-15 -79.5q0 -27 4.5 -43.5 t21 -27t26 -14t42.5 -12.5z"/>
<glyph glyph-name="dieresis" horiz-adv-x="438" unicode="¨" d="M363 653v-74h-88v74h88zM163 653v-74h-88v74h88z"/>
<glyph glyph-name="copyright" horiz-adv-x="780" unicode="©" d="M525 305h60q-7 -67 -58 -107.5t-119 -40.5q-95 0 -153.5 63t-58.5 158q0 96 56.5 157.5t152.5 61.5q70 0 119.5 -38.5t60.5 -105.5h-60q-8 44 -40 68.5t-79 24.5q-73 0 -111.5 -46t-38.5 -121q0 -73 40.5 -122t111.5 -49q46 0 78.5 25.5t38.5 71.5zM391 696 q-133 0 -227 -93.5t-94 -225.5q0 -134 94 -228.5t227 -94.5t226 94.5t93 228.5q0 132 -93.5 225.5t-225.5 93.5zM391 756q158 0 269.5 -111.5t111.5 -269.5q0 -159 -111.5 -270t-269.5 -111q-159 0 -271 111t-112 270q0 158 112 269.5t271 111.5z"/>
<glyph glyph-name="ordfeminine" horiz-adv-x="440" unicode="ª" d="M208 477q19 0 29.5 0.5t25 3t22 8t13.5 15.5t6 25q0 35 -20 44.5t-66 9.5q-52 0 -69.5 -8.5t-17.5 -41.5q0 -20 4 -31.5t15.5 -17t23 -6.5t34.5 -1zM311 435v24l-2 2q-12 -15 -33 -22.5t-36 -8.5t-41 -1q-63 0 -97 20t-34 78q0 61 32 82.5t98 21.5q83 0 106 -25 q0 23 -0.5 33.5t-2.5 25.5t-7 20.5t-14 12t-23 8.5t-34 2q-48 0 -65.5 -7t-17.5 -33v-9h-60q0 27 8 46t19 29t31 15t36 6t42 1q29 0 47.5 -1.5t40 -7.5t33.5 -17t20 -31t7 -49v-215h-53z"/>
<glyph glyph-name="guillemotleft" horiz-adv-x="503" unicode="«" d="M376 575l58 -35l-118 -251l131 -253l-55 -36l-151 289zM191 575l58 -35l-118 -251l131 -253l-55 -36l-151 289z"/>
<glyph glyph-name="logicalnot" horiz-adv-x="584" unicode="¬" d="M459 129v195h-409v75h484v-270h-75z"/>
<glyph glyph-name="uni00AD" horiz-adv-x="261" unicode="­" d="M0 311h261v-75h-261v75z"/>
<glyph glyph-name="registered" horiz-adv-x="780" unicode="®" d="M309 537v-138h112q106 0 106 77q0 61 -104 61h-114zM454 354l127 -193h-67l-122 187h-83v-187h-60v427h186q152 0 152 -113q0 -60 -36 -89.5t-97 -31.5zM391 696q-133 0 -227 -93.5t-94 -225.5q0 -134 94 -228.5t227 -94.5t226 94.5t93 228.5q0 132 -93.5 225.5 t-225.5 93.5zM391 756q158 0 269.5 -111.5t111.5 -269.5q0 -159 -111.5 -270t-269.5 -111q-159 0 -271 111t-112 270q0 158 112 269.5t271 111.5z"/>
<glyph glyph-name="macron" horiz-adv-x="434" unicode="¯" d="M79 648h276v-64h-276v64z"/>
<glyph glyph-name="degree" horiz-adv-x="400" unicode="°" d="M300 606q0 41 -30 70.5t-71 29.5q-40 0 -69.5 -29.5t-29.5 -70.5q0 -42 29.5 -71t70.5 -29t70.5 29t29.5 71zM350 606q0 -62 -44 -106t-106 -44t-106 44t-44 106q-1 62 43.5 106t106.5 44t106 -44t44 -106z"/>
<glyph glyph-name="plusminus" horiz-adv-x="584" unicode="±" d="M50 10v75h484v-75h-484zM255 525h75v-152h204v-75h-204v-152h-75v152h-205v75h205v152z"/>
<glyph glyph-name="twosuperior" horiz-adv-x="414" unicode="²" d="M105 362h286v-60h-351v76q0 44 9 70.5t34 41t50.5 19.5t77.5 10q74 8 88 15q26 13 28 64v15q0 56 -19.5 69.5t-85.5 13.5q-76 0 -96.5 -10.5t-20.5 -52.5v-12v-23h-65v23q0 42 4.5 63.5t23 40t55 25t99.5 6.5q99 0 134.5 -29t35.5 -114q0 -87 -36 -117t-132 -37 q-74 -5 -96.5 -18t-22.5 -56v-23z"/>
<glyph glyph-name="threesuperior" horiz-adv-x="414" unicode="³" d="M179 508v55h58q56 1 69 9q19 11 19 58q0 48 -18.5 59.5t-97.5 11.5q-63 0 -80.5 -11.5t-19.5 -56.5v-19h-65v19q0 42 10 67.5t35 37.5t51.5 15t75.5 3q24 0 33.5 -0.5t30 -1.5t28.5 -3t23 -6t21 -9.5t15.5 -14.5t13 -20.5t6.5 -27t3 -34.5q0 -51 -15.5 -76.5t-64.5 -28.5 v-2q53 -4 71.5 -27.5t18.5 -75.5q0 -38 -9.5 -63.5t-22 -39t-41.5 -20t-50 -7.5t-66 -1q-93 0 -133.5 23t-39.5 97v30h65v-25q0 -48 17.5 -58t90.5 -12h23q67 0 84 13.5t17 68.5q0 50 -20 61.5t-73 11.5h-5h-58z"/>
<glyph glyph-name="acute" horiz-adv-x="338" unicode="´" d="M224 743l39 -54l-161 -100l-27 41z"/>
<glyph glyph-name="mu" d="M422 0v70h-2q-33 -76 -164 -76q-70 0 -109 20v-241h-79v752h79v-337q0 -73 18.5 -101.5t89.5 -28.5q91 0 129.5 28t38.5 115v324h79v-525h-80z" unicode="µ"/>
<glyph glyph-name="paragraph" horiz-adv-x="690" unicode="¶" d="M417 364v316h-175q-35 0 -57.5 -6t-36 -15.5t-20 -31.5t-8 -44t-1.5 -63q0 -96 30 -126t93 -30h175zM656 -209h-75v889h-89v-889h-75v503h-175q-51 0 -85 8t-64 30.5t-44.5 69t-14.5 118.5q0 118 43 174t165 56h414v-959z"/>
<glyph glyph-name="periodcentered" horiz-adv-x="345" unicode="·" d="M217 335v-102h-89v102h89z"/>
<glyph glyph-name="cedilla" horiz-adv-x="270" unicode="¸" d="M130 -40l54 -30l-77 -107l-43 23z"/>
<glyph glyph-name="onesuperior" horiz-adv-x="414" unicode="¹" d="M269 756v-454h-65v406l-125 -128l-34 41l134 135h90z"/>
<glyph glyph-name="ordmasculine" horiz-adv-x="440" unicode="º" d="M225 708q-64 0 -78.5 -18t-14.5 -95q0 -33 0.5 -50t4.5 -32.5t8 -21t17.5 -9.5t24.5 -4.5t38 -0.5q57 0 70 20.5t13 97.5q0 74 -12.5 93.5t-70.5 19.5zM225 756q88 0 115.5 -32t27.5 -129q0 -51 -4 -78.5t-18.5 -49.5t-43 -30t-77.5 -8q-99 0 -126 31t-27 135 q0 49 4.5 75.5t20 48t46 29.5t82.5 8z"/>
<glyph glyph-name="guillemotright" horiz-adv-x="503" unicode="»" d="M69 540l58 35l135 -286l-151 -289l-55 36l131 253zM254 540l58 35l135 -286l-151 -289l-55 36l131 253z"/>
<glyph glyph-name="onequarter" horiz-adv-x="1035" unicode="¼" d="M279 750v-450h-65v402l-125 -128l-34 41l134 135h90zM850 151v256h-3l-216 -256h219zM803 750l-509 -750h-67l506 750h70zM915 450v-299h66v-60h-66v-91h-65v91h-269v72l242 287h92z"/>
<glyph glyph-name="onehalf" horiz-adv-x="1035" unicode="½" d="M701 60h286v-60h-351v76q0 44 9 70.5t34 41t50.5 19.5t77.5 10q74 8 88 15q26 13 28 64v15q0 56 -19.5 69.5t-85.5 13.5q-76 0 -96.5 -10.5t-20.5 -52.5v-12v-23h-65v23q0 42 4.5 63.5t23 40t55 25t99.5 6.5q99 0 134.5 -29t35.5 -114q0 -87 -36 -117t-132 -37 q-74 -5 -96.5 -18t-22.5 -56v-23zM181 750h90v-450h-65v402l-125 -128l-34 41zM784 750l-509 -750h-67l506 750h70z"/>
<glyph glyph-name="threequarters" horiz-adv-x="1035" unicode="¾" d="M186 508v55h58q56 1 69 9q19 11 19 58q0 48 -18.5 59.5t-97.5 11.5q-63 0 -80.5 -11.5t-19.5 -56.5v-19h-65v19q0 42 10 67.5t35 37.5t51.5 15t75.5 3q24 0 33.5 -0.5t30 -1.5t28.5 -3t23 -6t21 -9.5t15.5 -14.5t13 -20.5t6.5 -27t3 -34.5q0 -51 -15.5 -76.5t-64.5 -28.5 v-2q53 -4 71.5 -27.5t18.5 -75.5q0 -37 -8.5 -62t-20 -39t-36.5 -20.5t-46 -8t-59 -1.5h-19q-93 0 -133.5 23t-39.5 97v30h65v-25q0 -48 17.5 -58t90.5 -12h23q67 0 84 13.5t17 68.5q0 50 -20 61.5t-73 11.5h-5h-58zM850 750l-509 -750h-67l506 750h70zM860 151v256h-3 l-216 -256h219zM925 450v-299h66v-60h-66v-91h-65v91h-269v72l242 287h92z"/>
<glyph glyph-name="questiondown" horiz-adv-x="584" unicode="¿" d="M372 525v-102h-89v102h89zM286 309h85v-27q0 -71 -26.5 -99t-114.5 -61q-46 -18 -62 -30.5t-23.5 -38.5t-7.5 -86q0 -82 27.5 -103.5t122.5 -21.5q54 0 79 2.5t47 15t28.5 37.5t6.5 70v43h80v-43q-1 -55 -11.5 -91.5t-27.5 -58t-49 -32.5t-65 -14.5t-88 -3.5 q-128 0 -179 41t-51 159q0 69 7 104.5t36 66.5t88 51q66 23 82 37t16 56v27z"/>
<glyph glyph-name="Agrave" horiz-adv-x="685" unicode="À" d="M289 968l148 -113l-26 -41l-162 100zM508 229l-167 451l-165 -451h332zM532 159h-379l-58 -159h-89l273 750h120l280 -750h-88z"/>
<glyph glyph-name="Aacute" horiz-adv-x="685" unicode="Á" d="M398 968l39 -54l-161 -100l-27 41zM508 229l-167 451l-165 -451h332zM532 159h-379l-58 -159h-89l273 750h120l280 -750h-88z"/>
<glyph glyph-name="Acircumflex" horiz-adv-x="685" unicode="Â" d="M344 961l173 -108l-24 -42l-149 76l-155 -76l-21 42zM508 229l-167 451l-165 -451h332zM532 159h-379l-58 -159h-89l273 750h120l280 -750h-88z"/>
<glyph glyph-name="Atilde" horiz-adv-x="685" unicode="Ã" d="M469 914l43 -28q-43 -75 -103 -75q-23 0 -73 22q-50 21 -68 21q-5 0 -10 -1t-8 -2t-7 -4.5t-6 -4.5t-5.5 -6.5t-4.5 -7t-4.5 -8t-4.5 -7.5l-45 26q38 74 96 74q21 0 73 -21q50 -22 69 -22q33 0 58 44zM508 229l-167 451l-165 -451h332zM532 159h-379l-58 -159h-89 l273 750h120l280 -750h-88z"/>
<glyph glyph-name="Adieresis" horiz-adv-x="685" unicode="Ä" d="M487 878v-74h-88v74h88zM287 878v-74h-88v74h88zM508 229l-167 451l-165 -451h332zM532 159h-379l-58 -159h-89l273 750h120l280 -750h-88z"/>
<glyph glyph-name="Aring" horiz-adv-x="685" unicode="Å" d="M294 874q0 -20 14 -34.5t34 -14.5t34.5 14.5t14.5 34.5t-14.5 34.5t-34.5 14.5t-34 -14.5t-14 -34.5zM256 874q0 35 25.5 61t60.5 26q36 0 61.5 -26t25.5 -61q0 -36 -25.5 -61.5t-61.5 -25.5q-35 0 -60.5 25.5t-25.5 61.5zM508 229l-167 451l-165 -451h332zM532 159h-379 l-58 -159h-89l273 750h120l280 -750h-88z"/>
<glyph glyph-name="AE" horiz-adv-x="1044" unicode="Æ" d="M529 230v445h-72l-239 -445h311zM614 675v-255h375v-70h-375v-275h393v-75h-478v155h-350l-87 -155h-100l414 750h601v-75h-393z"/>
<glyph glyph-name="Ccedilla" horiz-adv-x="665" unicode="Ç" d="M383 -6h-120q-103 0 -160.5 62t-57.5 174v290q0 62 16 106t41 69t68 39t85 18t103 4h70q115 0 160 -50.5t45 -165.5v-24h-85v21q0 82 -26 113t-106 31h-48q-139 0 -188.5 -29.5t-49.5 -128.5v-206q0 -50 1 -78.5t6 -61t14.5 -49.5t26 -32t41.5 -21t60 -6h101 q105 0 141.5 24t36.5 102v60h85v-70q0 -50 -13.5 -85.5t-34.5 -56t-56.5 -31.5t-70 -14.5t-85.5 -3.5zM339 -40l54 -30l-77 -107l-43 23z"/>
<glyph glyph-name="Egrave" horiz-adv-x="560" unicode="È" d="M226 968l148 -113l-26 -41l-162 100zM126 675v-255h380v-70h-380v-275h397v-75h-482v750h482v-75h-397z"/>
<glyph glyph-name="Eacute" horiz-adv-x="560" unicode="É" d="M335 968l39 -54l-161 -100l-27 41zM126 675v-255h380v-70h-380v-275h397v-75h-482v750h482v-75h-397z"/>
<glyph glyph-name="Ecircumflex" horiz-adv-x="560" unicode="Ê" d="M282 961l173 -108l-24 -42l-149 76l-155 -76l-21 42zM126 675v-255h380v-70h-380v-275h397v-75h-482v750h482v-75h-397z"/>
<glyph glyph-name="Edieresis" horiz-adv-x="560" unicode="Ë" d="M424 878v-74h-88v74h88zM224 878v-74h-88v74h88zM126 675v-255h380v-70h-380v-275h397v-75h-482v750h482v-75h-397z"/>
<glyph glyph-name="Igrave" horiz-adv-x="228" unicode="Ì" d="M60 968l148 -113l-26 -41l-162 100zM157 750v-750h-85v750h85z"/>
<glyph glyph-name="Iacute" horiz-adv-x="228" unicode="Í" d="M169 968l39 -54l-161 -100l-27 41zM157 750v-750h-85v750h85z"/>
<glyph glyph-name="Icircumflex" horiz-adv-x="228" unicode="Î" d="M116 961l173 -108l-24 -42l-149 76l-155 -76l-21 42zM157 750v-750h-85v750h85z"/>
<glyph glyph-name="Idieresis" horiz-adv-x="228" unicode="Ï" d="M258 878v-74h-88v74h88zM58 878v-74h-88v74h88zM157 750v-750h-85v750h85z"/>
<glyph glyph-name="Eth" horiz-adv-x="734" unicode="Ð" d="M155 675v-254h207v-70h-207v-276h280q55 0 90 15t52 47t23 68t7 92v197q0 22 -5 47t-19.5 58t-49 54.5t-84.5 21.5h-294zM70 421v329h365q36 0 62.5 -3t66 -19.5t65 -45t44.5 -85.5t19 -136v-179q0 -25 -2 -47.5t-9 -58t-23.5 -64t-41 -55.5t-66 -42t-95.5 -15h-385v351 h-103v70h103z"/>
<glyph glyph-name="Ntilde" horiz-adv-x="783" unicode="Ñ" d="M518 914l43 -28q-43 -75 -103 -75q-23 0 -73 22q-50 21 -68 21q-5 0 -10 -1t-8 -2t-7 -4.5t-6 -4.5t-5.5 -6.5t-4.5 -7t-4.5 -8t-4.5 -7.5l-45 26q38 74 96 74q21 0 73 -21q50 -22 69 -22q33 0 58 44zM715 750v-750h-139l-421 680h-2v-680h-85v750h140l420 -685h2v685h85 z"/>
<glyph glyph-name="Ograve" horiz-adv-x="671" unicode="Ò" d="M262 968l148 -113l-26 -41l-162 100zM386 681h-101q-96 0 -127.5 -34.5t-31.5 -142.5v-267q0 -55 8.5 -88.5t30.5 -51t48 -23t72 -5.5h101q46 0 72 5.5t48 23t30.5 51t8.5 88.5v267q0 108 -31.5 142.5t-127.5 34.5zM285 756h101q140 -1 192 -55.5t52 -196.5v-267 q0 -133 -54.5 -188t-189.5 -55h-101q-135 0 -189.5 55t-54.5 188v267q0 142 52 196.5t192 55.5z"/>
<glyph glyph-name="Oacute" horiz-adv-x="671" unicode="Ó" d="M391 968l39 -54l-161 -100l-27 41zM386 681h-101q-96 0 -127.5 -34.5t-31.5 -142.5v-267q0 -55 8.5 -88.5t30.5 -51t48 -23t72 -5.5h101q46 0 72 5.5t48 23t30.5 51t8.5 88.5v267q0 108 -31.5 142.5t-127.5 34.5zM285 756h101q140 -1 192 -55.5t52 -196.5v-267 q0 -133 -54.5 -188t-189.5 -55h-101q-135 0 -189.5 55t-54.5 188v267q0 142 52 196.5t192 55.5z"/>
<glyph glyph-name="Ocircumflex" horiz-adv-x="671" unicode="Ô" d="M337 961l173 -108l-24 -42l-149 76l-155 -76l-21 42zM386 681h-101q-96 0 -127.5 -34.5t-31.5 -142.5v-267q0 -55 8.5 -88.5t30.5 -51t48 -23t72 -5.5h101q46 0 72 5.5t48 23t30.5 51t8.5 88.5v267q0 108 -31.5 142.5t-127.5 34.5zM285 756h101q140 -1 192 -55.5 t52 -196.5v-267q0 -133 -54.5 -188t-189.5 -55h-101q-135 0 -189.5 55t-54.5 188v267q0 142 52 196.5t192 55.5z"/>
<glyph glyph-name="Otilde" horiz-adv-x="671" unicode="Õ" d="M462 914l43 -28q-43 -75 -103 -75q-23 0 -73 22q-50 21 -68 21q-5 0 -10 -1t-8 -2t-7 -4.5t-6 -4.5t-5.5 -6.5t-4.5 -7t-4.5 -8t-4.5 -7.5l-45 26q38 74 96 74q20 0 73 -21q50 -22 69 -22q33 0 58 44zM386 681h-101q-96 0 -127.5 -34.5t-31.5 -142.5v-267 q0 -55 8.5 -88.5t30.5 -51t48 -23t72 -5.5h101q46 0 72 5.5t48 23t30.5 51t8.5 88.5v267q0 108 -31.5 142.5t-127.5 34.5zM285 756h101q140 -1 192 -55.5t52 -196.5v-267q0 -133 -54.5 -188t-189.5 -55h-101q-135 0 -189.5 55t-54.5 188v267q0 142 52 196.5t192 55.5z"/>
<glyph glyph-name="Odieresis" horiz-adv-x="671" unicode="Ö" d="M480 878v-74h-88v74h88zM280 878v-74h-88v74h88zM386 681h-101q-96 0 -127.5 -34.5t-31.5 -142.5v-267q0 -55 8.5 -88.5t30.5 -51t48 -23t72 -5.5h101q46 0 72 5.5t48 23t30.5 51t8.5 88.5v267q0 108 -31.5 142.5t-127.5 34.5zM285 756h101q140 -1 192 -55.5t52 -196.5 v-267q0 -133 -54.5 -188t-189.5 -55h-101q-135 0 -189.5 55t-54.5 188v267q0 142 52 196.5t192 55.5z"/>
<glyph glyph-name="multiply" horiz-adv-x="584" unicode="×" d="M50 436l49 50l193 -194l193 194l49 -50l-193 -193l193 -193l-49 -50l-193 194l-193 -194l-49 50l193 193z"/>
<glyph glyph-name="Oslash" horiz-adv-x="723" unicode="Ø" d="M707 751v-86l-46 -38q20 -39 20 -114v-31v-246q0 -133 -58 -187.5t-181 -54.5h-136q-77 0 -129.5 14t-87.5 61l-73 -68v81l45 44q-5 12 -11.5 46.5t-6.5 63.5v246q0 83 17.5 138t54 84.5t81.5 40.5t110 11h136q135 0 191 -72zM128 191l446 436q-14 32 -47.5 43t-84.5 11 h-136q-58 0 -92.5 -9t-54 -33t-25.5 -57t-6 -91v-9v-291zM596 559l-447 -433q24 -57 157 -57h136q89 0 121.5 40t32.5 127v323z"/>
<glyph glyph-name="Ugrave" horiz-adv-x="737" unicode="Ù" d="M275 968l148 -113l-26 -41l-162 100zM581 750h85v-540q0 -59 -15 -99.5t-37.5 -63.5t-64.5 -35t-80.5 -15t-99.5 -3q-44 0 -69 1t-61 5t-56.5 12t-44.5 24t-36.5 38.5t-21 57t-8.5 78.5v540h85v-540q0 -39 5 -62t16.5 -40t37.5 -24.5t60.5 -11t92.5 -3.5q36 0 53 0.5 t43 2t38 5t28.5 10.5t23 17t14 25t10 35t2.5 46v540z"/>
<glyph glyph-name="Uacute" horiz-adv-x="737" unicode="Ú" d="M424 968l39 -54l-161 -100l-27 41zM581 750h85v-540q0 -59 -15 -99.5t-37.5 -63.5t-64.5 -35t-80.5 -15t-99.5 -3q-44 0 -69 1t-61 5t-56.5 12t-44.5 24t-36.5 38.5t-21 57t-8.5 78.5v540h85v-540q0 -39 5 -62t16.5 -40t37.5 -24.5t60.5 -11t92.5 -3.5q36 0 53 0.5t43 2 t38 5t28.5 10.5t23 17t14 25t10 35t2.5 46v540z"/>
<glyph glyph-name="Ucircumflex" horiz-adv-x="737" unicode="Û" d="M370 961l173 -108l-24 -42l-149 76l-155 -76l-21 42zM581 750h85v-540q0 -59 -15 -99.5t-37.5 -63.5t-64.5 -35t-80.5 -15t-99.5 -3q-44 0 -69 1t-61 5t-56.5 12t-44.5 24t-36.5 38.5t-21 57t-8.5 78.5v540h85v-540q0 -39 5 -62t16.5 -40t37.5 -24.5t60.5 -11t92.5 -3.5 q36 0 53 0.5t43 2t38 5t28.5 10.5t23 17t14 25t10 35t2.5 46v540z"/>
<glyph glyph-name="Udieresis" horiz-adv-x="737" unicode="Ü" d="M513 878v-74h-88v74h88zM313 878v-74h-88v74h88zM581 750h85v-540q0 -59 -15 -99.5t-37.5 -63.5t-64.5 -35t-80.5 -15t-99.5 -3q-44 0 -69 1t-61 5t-56.5 12t-44.5 24t-36.5 38.5t-21 57t-8.5 78.5v540h85v-540q0 -39 5 -62t16.5 -40t37.5 -24.5t60.5 -11t92.5 -3.5 q36 0 53 0.5t43 2t38 5t28.5 10.5t23 17t14 25t10 35t2.5 46v540z"/>
<glyph glyph-name="Yacute" horiz-adv-x="632" unicode="Ý" d="M389 968l39 -54l-161 -100l-27 41zM638 750l-284 -437v-313h-85v313l-275 437h99l222 -351l222 351h101z"/>
<glyph glyph-name="Thorn" horiz-adv-x="661" unicode="Þ" d="M404 529h-260v-308h220h5q30 0 44.5 0.5t36 3t31.5 8t23 16t18 26t9 38t4 53.5q0 55 -5 86t-21.5 49t-39.5 23t-65 5zM59 0v750h85v-146h297q101 0 140 -59.5t39 -167.5q0 -21 -0.5 -34.5t-4 -40t-10 -45t-20 -41t-32.5 -36.5t-48.5 -24t-67.5 -10h-293v-146h-85z"/>
<glyph glyph-name="germandbls" horiz-adv-x="590" unicode="ß" d="M83 0v587q0 103 47 136t160 33q44 0 76.5 -5t65 -19.5t50 -45.5t17.5 -77q0 -98 -100 -125v-2q39 -6 65.5 -22t41 -35t22 -51t9 -57t1.5 -67q0 -47 -2 -78t-12 -68t-28.5 -58.5t-52.5 -36.5t-82 -15q-66 0 -108 32.5t-42 96.5v36h75v-18q0 -83 75 -83q38 0 56.5 12 t28.5 53.5t10 126.5q0 53 -4 84t-18 60.5t-45 42.5t-81 13h-66v64h49q81 0 103.5 20t22.5 63q0 62 -27.5 78.5t-99.5 16.5q-71 0 -99.5 -19.5t-28.5 -85.5v-587h-79z"/>
<glyph glyph-name="agrave" d="M211 743l148 -113l-26 -41l-162 100zM503 0h-79v54l-2 2q-20 -40 -63 -51t-110 -11q-100 0 -150 32t-50 127q0 53 13 86.5t41.5 50.5t62.5 22.5t88 5.5q153 0 165 -53h5v97q0 67 -32 86t-108 19q-21 0 -32.5 -0.5t-30.5 -2t-29.5 -6.5t-22.5 -12.5t-17 -20.5t-5 -30v-18 h-82v11q0 38 10.5 65t26.5 42t43 23t52.5 10.5t63.5 2.5h14h12q42 0 71.5 -3t59 -13.5t47 -28.5t28 -50.5t10.5 -77.5v-358zM263 58q30 0 47.5 1t42 6t37.5 15t22.5 29t9.5 47q0 29 -7.5 47.5t-17.5 29t-33.5 15t-41 5.5t-53.5 1h-6q-77 0 -104.5 -15.5t-27.5 -75.5 q0 -70 27.5 -87.5t104.5 -17.5z" unicode="à"/>
<glyph glyph-name="aacute" d="M340 743l39 -54l-161 -100l-27 41zM503 0h-79v54l-2 2q-20 -40 -63 -51t-110 -11q-100 0 -150 32t-50 127q0 53 13 86.5t41.5 50.5t62.5 22.5t88 5.5q153 0 165 -53h5v97q0 67 -32 86t-108 19q-21 0 -32.5 -0.5t-30.5 -2t-29.5 -6.5t-22.5 -12.5t-17 -20.5t-5 -30v-18 h-82v11q0 38 10.5 65t26.5 42t43 23t52.5 10.5t63.5 2.5h14h12q42 0 71.5 -3t59 -13.5t47 -28.5t28 -50.5t10.5 -77.5v-358zM263 58q30 0 47.5 1t42 6t37.5 15t22.5 29t9.5 47q0 29 -7.5 47.5t-17.5 29t-33.5 15t-41 5.5t-53.5 1h-6q-77 0 -104.5 -15.5t-27.5 -75.5 q0 -70 27.5 -87.5t104.5 -17.5z" unicode="á"/>
<glyph glyph-name="acircumflex" d="M287 736l173 -108l-24 -42l-149 76l-155 -76l-21 42zM503 0h-79v54l-2 2q-20 -40 -63 -51t-110 -11q-100 0 -150 32t-50 127q0 53 13 86.5t41.5 50.5t62.5 22.5t88 5.5q153 0 165 -53h5v97q0 67 -32 86t-108 19q-21 0 -32.5 -0.5t-30.5 -2t-29.5 -6.5t-22.5 -12.5 t-17 -20.5t-5 -30v-18h-82v11q0 38 10.5 65t26.5 42t43 23t52.5 10.5t63.5 2.5h14h12q42 0 71.5 -3t59 -13.5t47 -28.5t28 -50.5t10.5 -77.5v-358zM263 58q30 0 47.5 1t42 6t37.5 15t22.5 29t9.5 47q0 29 -7.5 47.5t-17.5 29t-33.5 15t-41 5.5t-53.5 1h-6 q-77 0 -104.5 -15.5t-27.5 -75.5q0 -70 27.5 -87.5t104.5 -17.5z" unicode="â"/>
<glyph glyph-name="atilde" d="M412 689l43 -28q-43 -75 -103 -75q-23 0 -73 22q-50 21 -68 21q-5 0 -10 -1t-8 -2t-7 -4.5t-6 -4.5t-5.5 -6.5t-4.5 -7t-4.5 -8t-4.5 -7.5l-45 26q38 74 96 74q20 0 73 -21q50 -22 69 -22q33 0 58 44zM503 0h-79v54l-2 2q-20 -40 -63 -51t-110 -11q-100 0 -150 32 t-50 127q0 53 13 86.5t41.5 50.5t62.5 22.5t88 5.5q153 0 165 -53h5v97q0 67 -32 86t-108 19q-21 0 -32.5 -0.5t-30.5 -2t-29.5 -6.5t-22.5 -12.5t-17 -20.5t-5 -30v-18h-82v11q0 38 10.5 65t26.5 42t43 23t52.5 10.5t63.5 2.5h14h12q42 0 71.5 -3t59 -13.5t47 -28.5 t28 -50.5t10.5 -77.5v-358zM263 58q30 0 47.5 1t42 6t37.5 15t22.5 29t9.5 47q0 29 -7.5 47.5t-17.5 29t-33.5 15t-41 5.5t-53.5 1h-6q-77 0 -104.5 -15.5t-27.5 -75.5q0 -70 27.5 -87.5t104.5 -17.5z" unicode="ã"/>
<glyph glyph-name="adieresis" d="M429 653v-74h-88v74h88zM229 653v-74h-88v74h88zM503 0h-79v54l-2 2q-20 -40 -63 -51t-110 -11q-100 0 -150 32t-50 127q0 53 13 86.5t41.5 50.5t62.5 22.5t88 5.5q153 0 165 -53h5v97q0 67 -32 86t-108 19q-21 0 -32.5 -0.5t-30.5 -2t-29.5 -6.5t-22.5 -12.5t-17 -20.5 t-5 -30v-18h-82v11q0 38 10.5 65t26.5 42t43 23t52.5 10.5t63.5 2.5h14h12q42 0 71.5 -3t59 -13.5t47 -28.5t28 -50.5t10.5 -77.5v-358zM263 58q30 0 47.5 1t42 6t37.5 15t22.5 29t9.5 47q0 29 -7.5 47.5t-17.5 29t-33.5 15t-41 5.5t-53.5 1h-6q-77 0 -104.5 -15.5 t-27.5 -75.5q0 -70 27.5 -87.5t104.5 -17.5z" unicode="ä"/>
<glyph glyph-name="aring" d="M237 649q0 -20 14 -34.5t34 -14.5t34.5 14.5t14.5 34.5t-14.5 34.5t-34.5 14.5t-34 -14.5t-14 -34.5zM199 649q0 35 25.5 61t60.5 26q36 0 61.5 -26t25.5 -61q0 -36 -25.5 -61.5t-61.5 -25.5q-35 0 -60.5 25.5t-25.5 61.5zM503 0h-79v54l-2 2q-20 -40 -63 -51t-110 -11 q-100 0 -150 32t-50 127q0 53 13 86.5t41.5 50.5t62.5 22.5t88 5.5q153 0 165 -53h5v97q0 67 -32 86t-108 19q-21 0 -32.5 -0.5t-30.5 -2t-29.5 -6.5t-22.5 -12.5t-17 -20.5t-5 -30v-18h-82v11q0 38 10.5 65t26.5 42t43 23t52.5 10.5t63.5 2.5h14h12q42 0 71.5 -3t59 -13.5 t47 -28.5t28 -50.5t10.5 -77.5v-358zM263 58q30 0 47.5 1t42 6t37.5 15t22.5 29t9.5 47q0 29 -7.5 47.5t-17.5 29t-33.5 15t-41 5.5t-53.5 1h-6q-77 0 -104.5 -15.5t-27.5 -75.5q0 -70 27.5 -87.5t104.5 -17.5z" unicode="å"/>
<glyph glyph-name="ae" horiz-adv-x="932" unicode="æ" d="M424 265v97q0 67 -32 86t-108 19q-21 0 -32.5 -0.5t-30.5 -2t-29.5 -6.5t-22.5 -12.5t-17 -20.5t-5 -30v-18h-82v11q0 38 10.5 65t26.5 42t43 23t52.5 10.5t63.5 2.5h14h17q158 0 176 -66q34 66 192 66q67 0 107 -9t68 -35t38.5 -70.5t10.5 -118.5v-53h-378 q0 -46 1.5 -72t7.5 -50t14.5 -34.5t27.5 -18.5t42 -10t61 -2q86 0 114.5 14t28.5 67v20h81v-19q0 -40 -13 -68.5t-31.5 -43.5t-51 -23t-59.5 -9.5t-69 -1.5q-38 0 -62.5 2t-55.5 10t-51.5 26.5t-29.5 48.5h-2q-9 -28 -29.5 -46.5t-52 -26.5t-60.5 -11t-68 -3q-100 0 -150 32 t-50 127q0 53 13 86.5t41.5 50.5t62.5 22.5t88 5.5q153 0 165 -53h5zM263 254q-77 0 -104.5 -15.5t-27.5 -75.5q0 -70 27.5 -87.5t104.5 -17.5q30 0 47.5 1t42 6t37.5 15t22.5 29t9.5 47q0 29 -7.5 47.5t-17.5 29t-33.5 15t-41 5.5t-53.5 1h-6zM506 309h296q-2 59 -6.5 88 t-22 46.5t-40.5 20.5t-73 3q-54 0 -83.5 -6.5t-45 -28.5t-19 -45.5t-6.5 -77.5z"/>
<glyph glyph-name="ccedilla" horiz-adv-x="546" unicode="ç" d="M426 190h79v-29q0 -43 -11.5 -74t-30.5 -49t-49 -28t-60 -13t-72 -3q-54 0 -92.5 6.5t-64.5 23t-41 36t-23 55t-10 69.5t-2 89q0 70 8 113.5t30.5 78.5t67 50.5t114.5 15.5q55 0 90 -5t69.5 -20.5t51 -49.5t16.5 -88v-14h-79v16q0 28 -7 46.5t-16.5 28.5t-30.5 15 t-38.5 6t-50.5 1q-31 0 -52.5 -4t-37 -9t-25.5 -19.5t-16 -27t-8.5 -40.5t-3 -50.5t-0.5 -65.5t1 -66t6 -49t15 -37.5t28 -22.5t44.5 -14.5t65.5 -3.5q79 0 107 19t28 87v26zM279 -40l54 -30l-77 -107l-43 23z"/>
<glyph glyph-name="egrave" horiz-adv-x="565" unicode="è" d="M209 743l148 -113l-26 -41l-162 100zM134 309h296q-2 59 -6.5 88t-22 46.5t-40.5 20.5t-73 3q-54 0 -83.5 -6.5t-45 -28.5t-19 -45.5t-6.5 -77.5zM431 159h81v-19q0 -40 -13 -68.5t-31.5 -43.5t-51 -23t-59.5 -9.5t-69 -1.5q-77 0 -123 13t-71.5 47t-33.5 80.5t-8 127.5 q0 163 47 216t189 53q67 0 107 -9t68 -35t38.5 -70.5t10.5 -118.5v-53h-378q0 -46 1.5 -72t7.5 -50t14.5 -34.5t27.5 -18.5t42 -10t61 -2q86 0 114.5 14t28.5 67v20z"/>
<glyph glyph-name="eacute" horiz-adv-x="565" unicode="é" d="M338 743l39 -54l-161 -100l-27 41zM134 309h296q-2 59 -6.5 88t-22 46.5t-40.5 20.5t-73 3q-54 0 -83.5 -6.5t-45 -28.5t-19 -45.5t-6.5 -77.5zM431 159h81v-19q0 -40 -13 -68.5t-31.5 -43.5t-51 -23t-59.5 -9.5t-69 -1.5q-77 0 -123 13t-71.5 47t-33.5 80.5t-8 127.5 q0 163 47 216t189 53q67 0 107 -9t68 -35t38.5 -70.5t10.5 -118.5v-53h-378q0 -46 1.5 -72t7.5 -50t14.5 -34.5t27.5 -18.5t42 -10t61 -2q86 0 114.5 14t28.5 67v20z"/>
<glyph glyph-name="ecircumflex" horiz-adv-x="565" unicode="ê" d="M284 736l173 -108l-24 -42l-149 76l-155 -76l-21 42zM134 309h296q-2 59 -6.5 88t-22 46.5t-40.5 20.5t-73 3q-54 0 -83.5 -6.5t-45 -28.5t-19 -45.5t-6.5 -77.5zM431 159h81v-19q0 -40 -13 -68.5t-31.5 -43.5t-51 -23t-59.5 -9.5t-69 -1.5q-77 0 -123 13t-71.5 47 t-33.5 80.5t-8 127.5q0 163 47 216t189 53q67 0 107 -9t68 -35t38.5 -70.5t10.5 -118.5v-53h-378q0 -46 1.5 -72t7.5 -50t14.5 -34.5t27.5 -18.5t42 -10t61 -2q86 0 114.5 14t28.5 67v20z"/>
<glyph glyph-name="edieresis" horiz-adv-x="565" unicode="ë" d="M427 653v-74h-88v74h88zM227 653v-74h-88v74h88zM134 309h296q-2 59 -6.5 88t-22 46.5t-40.5 20.5t-73 3q-54 0 -83.5 -6.5t-45 -28.5t-19 -45.5t-6.5 -77.5zM431 159h81v-19q0 -40 -13 -68.5t-31.5 -43.5t-51 -23t-59.5 -9.5t-69 -1.5q-77 0 -123 13t-71.5 47 t-33.5 80.5t-8 127.5q0 163 47 216t189 53q67 0 107 -9t68 -35t38.5 -70.5t10.5 -118.5v-53h-378q0 -46 1.5 -72t7.5 -50t14.5 -34.5t27.5 -18.5t42 -10t61 -2q86 0 114.5 14t28.5 67v20z"/>
<glyph glyph-name="igrave" horiz-adv-x="215" unicode="ì" d="M54 743l148 -113l-26 -41l-162 100zM147 525v-525h-79v525h79z"/>
<glyph glyph-name="iacute" horiz-adv-x="215" unicode="í" d="M163 743l39 -54l-161 -100l-27 41zM147 525v-525h-79v525h79z"/>
<glyph glyph-name="icircumflex" horiz-adv-x="215" unicode="î" d="M109 736l173 -108l-24 -42l-149 76l-155 -76l-21 42zM147 525v-525h-79v525h79z"/>
<glyph glyph-name="idieresis" horiz-adv-x="215" unicode="ï" d="M252 653v-74h-88v74h88zM52 653v-74h-88v74h88zM147 525v-525h-79v525h79z"/>
<glyph glyph-name="eth" d="M186 732l72 24q58 -36 98 -74l104 34l47 -41l-110 -34q121 -134 121 -323q0 -77 -3 -125.5t-13.5 -87.5t-24.5 -59t-43 -32.5t-61.5 -16t-87.5 -3.5q-76 0 -119 10t-70 41.5t-35.5 80.5t-8.5 136t8.5 136t35.5 81t70 42t119 10q47 0 70 -6.5t48 -24.5q-23 55 -81 118 l-112 -35l-44 37l118 38q-71 58 -98 74zM134 262q0 -51 1 -79t7 -54.5t14.5 -37.5t27 -20t41 -11t60.5 -2t60.5 2t41 11t27 20t14.5 37.5t7 54.5t1 79t-1 79.5t-7 54.5t-14.5 37.5t-27 20.5t-41 11t-60.5 2t-60.5 -2t-41 -11t-27 -20.5t-14.5 -37.5t-7 -54.5t-1 -79.5z" unicode="ð"/>
<glyph glyph-name="ntilde" horiz-adv-x="580" unicode="ñ" d="M417 689l43 -28q-43 -75 -103 -75q-23 0 -73 22q-50 21 -68 21q-5 0 -10 -1t-8 -2t-7 -4.5t-6 -4.5t-5.5 -6.5t-4.5 -7t-4.5 -8t-4.5 -7.5l-45 26q38 74 96 74q21 0 73 -21q50 -22 69 -22q33 0 58 44zM148 525v-64h2q28 70 162 70q105 0 151.5 -37.5t46.5 -138.5v-6v-349 h-79v355q0 69 -27.5 90.5t-98.5 21.5q-95 0 -126 -34t-31 -127v-306h-79v525h79z"/>
<glyph glyph-name="ograve" d="M211 743l148 -113l-26 -41l-162 100zM134 262q0 -51 1 -79t7 -54.5t14.5 -37.5t27 -20t41 -11t60.5 -2t60.5 2t41 11t27 20t14.5 37.5t7 54.5t1 79t-1 79.5t-7 54.5t-14.5 37.5t-27 20.5t-41 11t-60.5 2t-60.5 -2t-41 -11t-27 -20.5t-14.5 -37.5t-7 -54.5t-1 -79.5z M52 262q0 87 8.5 136t35.5 81t70 42t119 10t119 -10t70 -42t35.5 -81t8.5 -136t-8.5 -136t-35.5 -80.5t-70 -41.5t-119 -10t-119 10t-70 41.5t-35.5 80.5t-8.5 136z" unicode="ò"/>
<glyph glyph-name="oacute" d="M340 743l39 -54l-161 -100l-27 41zM134 262q0 -51 1 -79t7 -54.5t14.5 -37.5t27 -20t41 -11t60.5 -2t60.5 2t41 11t27 20t14.5 37.5t7 54.5t1 79t-1 79.5t-7 54.5t-14.5 37.5t-27 20.5t-41 11t-60.5 2t-60.5 -2t-41 -11t-27 -20.5t-14.5 -37.5t-7 -54.5t-1 -79.5zM52 262 q0 87 8.5 136t35.5 81t70 42t119 10t119 -10t70 -42t35.5 -81t8.5 -136t-8.5 -136t-35.5 -80.5t-70 -41.5t-119 -10t-119 10t-70 41.5t-35.5 80.5t-8.5 136z" unicode="ó"/>
<glyph glyph-name="ocircumflex" d="M287 736l173 -108l-24 -42l-149 76l-155 -76l-21 42zM134 262q0 -51 1 -79t7 -54.5t14.5 -37.5t27 -20t41 -11t60.5 -2t60.5 2t41 11t27 20t14.5 37.5t7 54.5t1 79t-1 79.5t-7 54.5t-14.5 37.5t-27 20.5t-41 11t-60.5 2t-60.5 -2t-41 -11t-27 -20.5t-14.5 -37.5t-7 -54.5 t-1 -79.5zM52 262q0 87 8.5 136t35.5 81t70 42t119 10t119 -10t70 -42t35.5 -81t8.5 -136t-8.5 -136t-35.5 -80.5t-70 -41.5t-119 -10t-119 10t-70 41.5t-35.5 80.5t-8.5 136z" unicode="ô"/>
<glyph glyph-name="otilde" d="M412 689l43 -28q-43 -75 -103 -75q-23 0 -73 22q-50 21 -68 21q-5 0 -10 -1t-8 -2t-7 -4.5t-6 -4.5t-5.5 -6.5t-4.5 -7t-4.5 -8t-4.5 -7.5l-45 26q38 74 96 74q20 0 73 -21q50 -22 69 -22q33 0 58 44zM134 262q0 -51 1 -79t7 -54.5t14.5 -37.5t27 -20t41 -11t60.5 -2 t60.5 2t41 11t27 20t14.5 37.5t7 54.5t1 79t-1 79.5t-7 54.5t-14.5 37.5t-27 20.5t-41 11t-60.5 2t-60.5 -2t-41 -11t-27 -20.5t-14.5 -37.5t-7 -54.5t-1 -79.5zM52 262q0 87 8.5 136t35.5 81t70 42t119 10t119 -10t70 -42t35.5 -81t8.5 -136t-8.5 -136t-35.5 -80.5 t-70 -41.5t-119 -10t-119 10t-70 41.5t-35.5 80.5t-8.5 136z" unicode="õ"/>
<glyph glyph-name="odieresis" d="M429 653v-74h-88v74h88zM229 653v-74h-88v74h88zM134 262q0 -51 1 -79t7 -54.5t14.5 -37.5t27 -20t41 -11t60.5 -2t60.5 2t41 11t27 20t14.5 37.5t7 54.5t1 79t-1 79.5t-7 54.5t-14.5 37.5t-27 20.5t-41 11t-60.5 2t-60.5 -2t-41 -11t-27 -20.5t-14.5 -37.5t-7 -54.5 t-1 -79.5zM52 262q0 87 8.5 136t35.5 81t70 42t119 10t119 -10t70 -42t35.5 -81t8.5 -136t-8.5 -136t-35.5 -80.5t-70 -41.5t-119 -10t-119 10t-70 41.5t-35.5 80.5t-8.5 136z" unicode="ö"/>
<glyph glyph-name="divide" horiz-adv-x="584" unicode="÷" d="M344 421h-104v104h104v-104zM344 42h-104v104h104v-104zM534 321v-75h-484v75h484z"/>
<glyph glyph-name="oslash" d="M137 155l281 271q-18 41 -129 41q-35 0 -55.5 -1.5t-40.5 -7.5t-29.5 -16t-17.5 -29t-10.5 -44.5t-2.5 -64.5q0 -6 0.5 -20t0.5 -22q3 -106 3 -107zM434 370l-282 -268q12 -44 137 -44q38 0 58.5 1t39 10.5t26 18.5t13.5 37t7.5 55t2.5 82q0 72 -2 108zM532 540v-68 l-34 -36q20 -47 20 -137v-37q-1 -64 -5.5 -102.5t-18 -74t-38.5 -53.5t-65.5 -28t-101.5 -10q-149 0 -195 51l-63 -61v66l41 40q-20 39 -20 147v25v12q0 80 7 123.5t32.5 77t71.5 45t126 11.5q40 0 64.5 -1.5t61 -13t57.5 -34.5z" unicode="ø"/>
<glyph glyph-name="ugrave" d="M191 743l148 -113l-26 -41l-162 100zM420 0v70h-2q-33 -76 -164 -76q-103 0 -145.5 44.5t-42.5 149.5v337h79v-337q0 -73 18.5 -101.5t89.5 -28.5q91 0 129.5 27.5t38.5 115.5v324h79v-525h-80z" unicode="ù"/>
<glyph glyph-name="uacute" d="M340 743l39 -54l-161 -100l-27 41zM420 0v70h-2q-33 -76 -164 -76q-103 0 -145.5 44.5t-42.5 149.5v337h79v-337q0 -73 18.5 -101.5t89.5 -28.5q91 0 129.5 27.5t38.5 115.5v324h79v-525h-80z" unicode="ú"/>
<glyph glyph-name="ucircumflex" d="M287 736l173 -108l-24 -42l-149 76l-155 -76l-21 42zM420 0v70h-2q-33 -76 -164 -76q-103 0 -145.5 44.5t-42.5 149.5v337h79v-337q0 -73 18.5 -101.5t89.5 -28.5q91 0 129.5 27.5t38.5 115.5v324h79v-525h-80z" unicode="û"/>
<glyph glyph-name="udieresis" d="M429 653v-74h-88v74h88zM229 653v-74h-88v74h88zM420 0v70h-2q-33 -76 -164 -76q-103 0 -145.5 44.5t-42.5 149.5v337h79v-337q0 -73 18.5 -101.5t89.5 -28.5q91 0 129.5 27.5t38.5 115.5v324h79v-525h-80z" unicode="ü"/>
<glyph glyph-name="yacute" horiz-adv-x="437" unicode="ý" d="M292 743l39 -54l-161 -100l-27 41zM441 525l-151 -562q-28 -97 -49 -131q-42 -65 -128 -65q-9 0 -36 5v61q14 -3 28 -3q23 0 40.5 11t28.5 33t17 39.5t13 47t10 39.5h-28l-190 525h81l162 -467h2l118 467h82z"/>
<glyph glyph-name="thorn" horiz-adv-x="573" unicode="þ" d="M145 62v-289h-79v977h79v-289l2 -2q38 72 169 72q56 0 94.5 -14t60 -34.5t33 -58.5t14.5 -72.5t3 -89.5q0 -155 -44 -211.5t-161 -56.5q-136 0 -169 68h-2zM294 467q-32 0 -55.5 -5t-39.5 -11t-26.5 -22t-16 -27.5t-8 -39t-3 -45t-0.5 -55.5q0 -44 2 -70t10 -55t23.5 -44 t44 -25t69.5 -10q91 0 118 38t27 166q0 66 -3.5 99.5t-18.5 60.5t-43.5 36t-79.5 9z"/>
<glyph glyph-name="OE" horiz-adv-x="1109" unicode="Œ" d="M676 675v-255h379v-70h-379v-275h396v-75h-481v78h-2q-12 -24 -33 -40.5t-41.5 -25t-52.5 -13t-52.5 -5t-56.5 -0.5q-62 0 -101.5 3t-78 13t-60.5 28.5t-39.5 49.5t-24.5 75.5t-7 107.5v201q0 166 64.5 225t246.5 59q218 0 236 -86h2v80h481v-75h-396zM353 681 q-40 0 -63 -0.5t-49.5 -4t-40 -9t-28.5 -16t-22 -25t-13 -37.5t-8 -50.5t-2 -66.5l-1 -201v-5q0 -49 4 -82t17.5 -55t27 -34t44.5 -18t57 -7t77 -1q41 0 64 0.5t51 3.5t42.5 8.5t31 15.5t23.5 24.5t14.5 36t9.5 49t2 64.5v201q0 52 -3.5 85.5t-16 58t-26 36.5t-45.5 19 t-61.5 8.5t-85.5 1.5z"/>
<glyph glyph-name="oe" horiz-adv-x="942" unicode="œ" d="M514 309h296q-2 59 -6.5 88t-22 46.5t-40.5 20.5t-73 3q-54 0 -83.5 -6.5t-45 -28.5t-19 -45.5t-6.5 -77.5zM51 262q0 44 1.5 72t6 60t14 50.5t25 37t39 28t56.5 15.5t77 6h23q32 0 55 -2t52.5 -8.5t48 -22.5t23.5 -41h2q9 25 28.5 41t49.5 22.5t55 8.5t61 2q67 0 107 -9 t68 -35t38.5 -70.5t10.5 -118.5v-53h-378q0 -46 1.5 -72t7.5 -50t14.5 -34.5t27.5 -18.5t42 -10t61 -2q86 0 114.5 14t28.5 67v20h81v-19q0 -40 -13 -68.5t-31.5 -43.5t-51 -23t-59.5 -9.5t-69 -1.5q-80 0 -127 13.5t-68 59.5q-17 -46 -62.5 -59.5t-114.5 -13.5h-20 q-60 0 -100.5 10.5t-65 29.5t-38 54t-17.5 74t-4 100zM432 262q0 55 -1 82.5t-7 55t-14 37.5t-28.5 19t-43.5 10t-65 1q-31 0 -51.5 -3t-36.5 -7t-25.5 -17.5t-15 -24t-8 -38.5t-3 -49t-0.5 -66q0 -48 1.5 -75t7 -53t14.5 -38.5t26.5 -22t41 -12.5t59.5 -3q28 0 48 1.5 t36.5 7t26.5 11t17.5 19.5t11.5 25.5t6 36.5t2.5 45.5t0.5 57.5z"/>
<glyph glyph-name="Scaron" horiz-adv-x="629" unicode="Š" d="M312 811l-172 107l24 43l148 -76l156 76l21 -43zM311 346q-17 1 -48 3t-47 3.5t-41.5 4.5t-39.5 8.5t-32.5 14.5t-28.5 23t-20 32.5t-14 44.5t-4 58q0 50 7 85.5t24 59.5t37.5 39t55 22t68 9.5t85.5 2.5q40 0 64.5 -1t56.5 -5t51 -11.5t40 -21t32 -33.5t18.5 -49.5 t7.5 -68.5v-21h-85q-1 35 -3.5 56t-12 37.5t-19.5 24t-35 12t-48.5 5.5t-69.5 1q-65 0 -100 -4.5t-56 -19.5t-27 -37t-6 -64q0 -48 8.5 -75.5t37 -40t50 -15t78.5 -3.5q22 -1 34 -1q128 -7 164 -17q69 -19 90 -83q14 -41 14 -108q0 -45 -6.5 -79t-17 -57.5t-31.5 -39 t-40 -24t-54.5 -13t-63.5 -5.5t-76 -1q-59 0 -97.5 3.5t-75.5 15t-57.5 32.5t-33 57.5t-12.5 88.5q0 13 2 43h85v-14q0 -23 1 -41t4.5 -33t6 -25.5t11 -19l13.5 -13.5t20 -9t24 -6t30.5 -3t35 -1h43.5q38 0 55 0.5t43.5 2t37 5t26 11t20.5 17.5t12 26t8.5 36.5t1.5 48.5 q0 27 -3.5 46.5t-8.5 32.5t-16 22t-20.5 13.5t-29 7t-34 3.5t-42 2t-47.5 3z"/>
<glyph glyph-name="scaron" horiz-adv-x="537" unicode="š" d="M266 586l-172 107l24 43l148 -76l156 76l21 -43zM484 408v-20h-82v20q0 16 -5.5 26t-13 15.5t-26.5 8t-33 3t-45 0.5h-9q-34 0 -50.5 -0.5t-37 -4t-29.5 -10t-15 -18.5t-6 -31q0 -61 16.5 -74.5t73.5 -15.5q12 -1 18 -1q17 -1 49 -2t48.5 -2t42.5 -4.5t40 -9.5t31.5 -17 t26 -27t14.5 -40.5t6 -55.5q0 -43 -12.5 -73t-30 -45.5t-50 -24t-58 -10t-68.5 -1.5q-42 0 -69 1.5t-61.5 8.5t-54.5 19.5t-34 36t-14 57.5v49h82v-41q0 -37 30 -49t121 -12q5 0 17 -0.5t19 -0.5q46 0 73.5 16t27.5 66q0 24 -4.5 40t-9 24.5t-20 13t-24.5 5.5t-36 1.5 t-43 1.5q-12 1 -37.5 2t-38 2t-34 4t-33 7t-28 11t-25 17t-17.5 24.5t-12.5 34t-3.5 43.5q0 28 3.5 50t12.5 38t18.5 27.5t27.5 19t32 11.5t40 6t44 2.5t51 0.5q35 0 57.5 -1t53.5 -8t49 -19t31.5 -36.5t13.5 -58.5z"/>
<glyph glyph-name="Ydieresis" horiz-adv-x="632" unicode="Ÿ" d="M460 878v-74h-88v74h88zM260 878v-74h-88v74h88zM638 750l-284 -437v-313h-85v313l-275 437h99l222 -351l222 351h101z"/>
<glyph glyph-name="circumflex" horiz-adv-x="499" unicode="ˆ" d="M251 736l173 -108l-24 -42l-149 76l-155 -76l-21 42z"/>
<glyph glyph-name="tilde" horiz-adv-x="489" unicode="˜" d="M371 689l43 -28q-43 -75 -103 -75q-23 0 -73 22q-50 21 -68 21q-5 0 -10 -1t-8 -2t-7 -4.5t-6 -4.5t-5.5 -6.5t-4.5 -7t-4.5 -8t-4.5 -7.5l-45 26q38 74 96 74q21 0 73 -21q50 -22 69 -22q33 0 58 44z"/>
<glyph glyph-name="uni03BC" d="M422 0v70h-2q-33 -76 -164 -76q-70 0 -109 20v-241h-79v752h79v-337q0 -73 18.5 -101.5t89.5 -28.5q91 0 129.5 28t38.5 115v324h79v-525h-80z" unicode="μ"/>
<glyph glyph-name="pi" horiz-adv-x="692" unicode="π" d="M662 483h-103v-318q0 -103 17 -165h-76q-20 29 -20 154v329h-236q-7 -117 -33.5 -268t-57.5 -215h-78q33 77 59 222t32 261q-100 0 -143 -16l-13 49q53 29 171 29h489z"/>
<glyph glyph-name="endash" horiz-adv-x="500" unicode="–" d="M0 311h500v-75h-500v75z"/>
<glyph glyph-name="emdash" horiz-adv-x="1000" unicode="—" d="M0 311h1000v-75h-1000v75z"/>
<glyph glyph-name="quoteleft" horiz-adv-x="201" unicode="‘" d="M102 644h38v-102h-89v121q0 46 15.5 69.5t61.5 23.5h23v-45q-28 -1 -38.5 -11t-10.5 -37v-19z"/>
<glyph glyph-name="quotesinglbase" horiz-adv-x="228" unicode="‚" d="M113 0h-38v102h89v-121q0 -46 -15.5 -69.5t-61.5 -23.5h-23v45q28 1 38.5 11t10.5 37v19z"/>
<glyph glyph-name="quotedblleft" horiz-adv-x="359" unicode="“" d="M102 644h38v-102h-89v121q0 46 15.5 69.5t61.5 23.5h23v-45q-28 -1 -38.5 -11t-10.5 -37v-19zM259 644h38v-102h-89v121q0 46 15.5 69.5t61.5 23.5h23v-45q-28 -1 -38.5 -11t-10.5 -37v-19z"/>
<glyph glyph-name="quotedblright" horiz-adv-x="359" unicode="”" d="M257 648h-38v102h89v-121q0 -46 -15.5 -69.5t-61.5 -23.5h-23v45q28 1 38.5 11t10.5 37v19zM100 648h-38v102h89v-121q0 -46 -15.5 -69.5t-61.5 -23.5h-23v45q28 1 38.5 11t10.5 37v19z"/>
<glyph glyph-name="dagger" horiz-adv-x="690" unicode="†" d="M387 750v-206h173v-70h-173v-683h-85v683h-172v70h172v206h85z"/>
<glyph glyph-name="daggerdbl" horiz-adv-x="690" unicode="‡" d="M387 750v-236h173v-70h-173v-329h173v-70h-173v-254h-85v254h-172v70h172v329h-172v70h172v236h85z"/>
<glyph glyph-name="ellipsis" horiz-adv-x="1000" unicode="…" d="M878 102v-102h-89v102h89zM545 102v-102h-89v102h89zM212 102v-102h-89v102h89z"/>
<glyph glyph-name="perthousand" horiz-adv-x="1282" unicode="‰" d="M287 513v110q0 55 -18 66.5t-88 11.5q-65 0 -82 -11.5t-17 -66.5v-110q0 -59 16.5 -71t82.5 -12q68 0 87 12t19 71zM347 621v-110q-1 -86 -36.5 -111t-128.5 -25t-125.5 24.5t-34.5 110.5v110q2 86 34.5 111t124.5 25q94 0 129.5 -25t36.5 -110zM1200 132v110 q0 55 -18 66.5t-88 11.5q-65 0 -82 -11.5t-17 -66.5v-110q0 -59 16.5 -71t82.5 -12q68 0 87 12t19 71zM1260 240v-110q-1 -86 -36.5 -111t-128.5 -25t-125.5 24.5t-34.5 110.5v110q2 86 34.5 111t124.5 25q94 0 129.5 -25t36.5 -110zM729 750l-509 -756h-67l506 756h70z M862 240v-110q-1 -86 -36.5 -111t-128.5 -25t-125.5 24.5t-34.5 110.5v110q2 86 34.5 111t124.5 25q94 0 129.5 -25t36.5 -110zM802 132v110q0 55 -18 66.5t-88 11.5q-65 0 -82 -11.5t-17 -66.5v-110q0 -59 16.5 -71t82.5 -12q68 0 87 12t19 71z"/>
<glyph glyph-name="guilsinglleft" horiz-adv-x="318" unicode="‹" d="M191 575l58 -35l-118 -251l131 -253l-55 -36l-151 289z"/>
<glyph glyph-name="guilsinglright" horiz-adv-x="318" unicode="›" d="M69 540l58 35l135 -286l-151 -289l-55 36l131 253z"/>
<glyph glyph-name="fraction" horiz-adv-x="566" unicode="⁄" d="M571 750l-509 -750h-67l506 750h70z"/>
<glyph glyph-name="Euro" horiz-adv-x="690" unicode="€" d="M683 671l-30 -90q-23 50 -69.5 75t-106.5 25h-135q-73 0 -112.5 -33.5t-39.5 -124.5v-41h433l-20 -65h-413v-62h394l-20 -65h-374q0 -51 3 -82t11.5 -60.5t24.5 -45t43 -24.5t67 -9h141q126 0 178 94v-99q-58 -70 -202 -70h-7h-126q-103 0 -160.5 62t-57.5 174v60h-93 l20 65h73v62h-93l20 65h73v38q0 57 16 101t40.5 69t58 40.5t62.5 20.5t60 5h112h13q142 0 216 -85z"/>
<glyph glyph-name="trademark" horiz-adv-x="1000" unicode="™" d="M404 750v-60h-133v-361h-75v361h-133v60h341zM942 750v-421h-70v361h-2l-144 -361h-39l-140 361h-2v-361h-70v421h111l121 -297l125 297h110z"/>
<glyph glyph-name="partialdiff" horiz-adv-x="659" unicode="∂" d="M290 57h1q87 0 145 75.5t73 182.5q-17 46 -69.5 89.5t-121.5 43.5q-78 0 -134.5 -59t-56.5 -143q0 -80 45.5 -134.5t117.5 -54.5zM122 716l-29 50q81 62 201 62q126 0 215 -107.5t89 -293.5q0 -113 -33.5 -208.5t-106.5 -158t-174 -62.5q-112 0 -173 76t-61 169 q0 117 75 190t180 73q56 0 105 -24.5t73 -49.5t36 -47h1q2 15 2 54q0 147 -69 237.5t-166 90.5q-92 0 -165 -51z"/>
<glyph glyph-name="product" horiz-adv-x="850" unicode="∏" d="M820 667h-140v-768h-75v768h-360v-768h-76v768h-140v66h791v-66z"/>
<glyph glyph-name="summation" horiz-adv-x="675" unicode="∑" d="M647 -101h-622v47l334 368l-318 368v51h589v-65h-477v-4l297 -342l-318 -351v-4h515v-68z"/>
<glyph glyph-name="minus" horiz-adv-x="584" unicode="−" d="M50 246v75h484v-75h-484z"/>
<glyph glyph-name="radical" horiz-adv-x="681" unicode="√" d="M686 868l-271 -1027h-71l-196 491l-91 -34l-17 44l154 61l164 -419q15 -45 20 -67h2q1 6 15 68l231 883h60z"/>
<glyph glyph-name="infinity" horiz-adv-x="905" unicode="∞" d="M672 433h-1q-28 0 -59 -16.5t-48 -31.5t-46 -46t-34 -36q69 -73 107.5 -102t81.5 -29q54 0 86.5 39t32.5 89q0 61 -34 97t-86 36zM240 172h1q22 0 42 6.5t44 25.5t33 26.5t38 37.5l28 30q-29 35 -42 49.5t-40.5 39.5t-54 35.5t-57.5 10.5q-53 0 -85.5 -39t-32.5 -94 t34.5 -91.5t91.5 -36.5zM844 304v-1q0 -80 -52 -130t-123 -50q-53 0 -100.5 33t-114.5 107q-31 -34 -49 -52t-47.5 -42.5t-60.5 -35t-65 -10.5q-70 0 -120.5 51.5t-50.5 125.5q0 77 51.5 128.5t128.5 51.5q59 0 108.5 -36.5t108.5 -104.5q37 41 49.5 53.5t45 40t61.5 37.5 t63 10q76 -1 121.5 -49.5t45.5 -126.5z"/>
<glyph glyph-name="approxequal" horiz-adv-x="685" unicode="≈" d="M593 267l32 -29q-61 -104 -153 -104q-24 0 -49 7.5t-40.5 15t-54.5 27.5q-72 38 -114 38q-39 0 -66.5 -22.5t-56.5 -63.5l-33 29q28 50 70.5 78t92.5 28q21 0 43 -6t32 -10.5t34.5 -17.5t26.5 -14q4 -2 22 -11.5t24 -12t20 -8t26 -7t26 -1.5q36 0 63 20t55 64zM593 463 l32 -30q-61 -104 -153 -104q-24 0 -49.5 7.5t-39 14t-55.5 28.5q-70 38 -114 38q-39 0 -66.5 -22.5t-56.5 -62.5l-33 28q28 50 71 78t93 28q20 0 41.5 -5.5t34 -11.5t33 -17t26.5 -14q61 -33 89 -38q14 -2 29 -2q67 0 118 85z"/>
<glyph glyph-name="notequal" horiz-adv-x="685" unicode="≠" d="M482 554l-57 -119h198v-49h-219l-84 -174h303v-50h-325l-68 -142l-40 20l58 122h-187v50h210l82 174h-292v49h314l66 139z"/>
<glyph glyph-name="lessequal" horiz-adv-x="685" unicode="≤" d="M622 -7h-561v49h561v-49zM619 89l-550 257v52l550 257v-59l-494 -222v-2l494 -225v-58z"/>
<glyph glyph-name="greaterequal" horiz-adv-x="685" unicode="≥" d="M621 -7h-559v49h559v-49zM69 655l551 -257v-53l-551 -256v58l493 224v2l-493 223v59z"/>
<glyph glyph-name="lozenge" horiz-adv-x="682" unicode="◊" d="M545 364l-182 315q-15 28 -23 49h-2q-10 -26 -24 -49l-179 -311l183 -317q18 -36 22 -48h3q6 21 22 48zM616 366l-246 -421h-61l-244 421l245 422h61z"/>
</font>
</defs>
</svg>
